<?xml version="1.0" encoding="UTF-8" standalone="no"?>
<!DOCTYPE svg PUBLIC "-//W3C//DTD SVG 1.1//EN" "http://www.w3.org/Graphics/SVG/1.1/DTD/svg11.dtd">
<svg
      xmlns="http://www.w3.org/2000/svg"
      version="1.1"
      viewBox="0 0 1448 1448"
    >
      <g stroke-width="5.00" fill="none" stroke-linecap="butt">
        <path
          stroke="#6c521f"
          vector-effect="non-scaling-stroke"
          d="
  M 719.46 392.23
  Q 718.95 389.11 718.64 384.76
  Q 715.09 335.66 711.39 285.90
  Q 711.29 284.61 710.01 284.72
  Q 694.71 285.95 678.68 287.38
  Q 677.10 287.52 676.11 287.85
  Q 675.50 288.04 675.46 288.69
  L 671.00 356.19
  A 0.31 0.30 -49.5 0 1 670.40 356.24
  L 656.25 290.28
  A 1.47 1.46 81.8 0 0 654.72 289.13
  L 621.47 291.39
  Q 620.81 291.44 620.77 292.10
  Q 620.65 294.07 620.90 297.32
  Q 624.71 348.54 628.54 400.14
  A 0.49 0.49 0.0 0 1 627.59 400.34
  L 592.31 299.23
  Q 591.94 298.18 590.85 298.44
  Q 573.27 302.70 556.00 306.96
  C 552.94 307.71 553.66 309.06 554.02 311.54
  Q 561.95 367.03 570.16 422.57
  A 1.10 1.10 0.0 0 0 571.50 423.47
  L 591.22 418.58
  A 1.34 1.34 0.0 0 0 592.22 417.05
  L 589.31 400.38
  Q 589.19 399.71 589.85 399.56
  L 601.75 396.79
  A 1.09 1.08 -16.6 0 1 603.02 397.47
  L 608.86 413.47
  A 0.75 0.74 74.2 0 0 609.71 413.95
  C 622.63 411.31 634.48 407.75 648.31 406.67
  Q 648.88 406.63 649.22 406.17
  Q 650.16 404.92 650.01 402.75
  Q 647.28 364.12 644.07 325.91
  A 0.27 0.27 0.0 0 1 644.60 325.83
  L 664.04 404.00
  A 1.69 1.69 0.0 0 0 665.81 405.28
  L 684.35 403.78
  A 1.02 1.00 -0.0 0 0 685.28 402.86
  L 692.14 322.57
  A 0.19 0.19 0.0 0 1 692.52 322.57
  L 698.71 401.48
  A 0.96 0.95 86.0 0 0 699.71 402.36
  Q 719.66 401.49 739.25 405.24
  A 1.21 1.21 0.0 0 0 740.66 404.27
  L 743.73 387.32
  A 1.12 1.11 7.6 0 1 744.93 386.41
  L 756.97 387.53
  A 0.72 0.71 -88.2 0 1 757.61 388.22
  L 758.03 405.89
  Q 758.05 406.53 758.69 406.58
  L 778.23 408.18
  Q 779.75 408.31 779.75 406.78
  Q 779.76 349.73 779.75 292.75
  C 779.75 290.63 778.14 290.97 776.66 290.83
  Q 758.89 289.15 741.12 287.57
  A 1.23 1.23 0.0 0 0 739.80 288.56
  L 719.89 392.23
  Q 719.66 393.45 719.46 392.23"
        />
        <path
          stroke="#6c521f"
          vector-effect="non-scaling-stroke"
          d="
  M 879.31 385.17
  L 894.81 318.88
  A 0.94 0.94 0.0 0 0 894.19 317.77
  L 875.28 311.56
  A 1.05 1.04 -69.3 0 0 873.99 312.15
  L 846.87 375.22
  A 0.32 0.32 0.0 0 1 846.26 375.02
  L 861.57 308.69
  Q 861.92 307.18 860.44 306.69
  L 842.00 300.55
  Q 840.92 300.19 840.33 301.16
  Q 839.77 302.10 839.38 303.92
  Q 827.89 357.58 816.48 411.24
  Q 816.08 413.10 816.05 414.37
  Q 816.03 415.04 816.66 415.25
  L 842.21 423.76
  A 0.84 0.84 0.0 0 0 843.25 423.30
  L 864.22 375.56
  A 0.31 0.30 -27.4 0 1 864.80 375.74
  L 854.02 426.28
  A 1.37 1.36 -75.0 0 0 854.93 427.87
  L 879.17 435.80
  Q 880.41 436.20 880.95 435.01
  L 928.45 330.08
  A 0.94 0.93 21.5 0 0 927.89 328.80
  L 908.20 322.31
  A 1.34 1.33 -69.0 0 0 906.55 323.05
  L 879.85 385.34
  A 0.29 0.28 -27.2 0 1 879.31 385.17"
        />
        <path
          stroke="#6c521f"
          vector-effect="non-scaling-stroke"
          d="
  M 487.81 336.46
  C 480.18 351.42 487.64 371.54 502.55 379.46
  C 511.27 384.09 527.00 388.75 534.35 395.88
  C 536.96 398.40 542.31 407.68 540.87 412.05
  C 539.71 415.55 533.23 415.92 531.88 412.67
  Q 528.42 404.32 524.87 396.33
  A 0.95 0.95 0.0 0 0 523.69 395.82
  Q 514.49 398.97 505.49 402.36
  Q 503.60 403.07 504.14 405.08
  C 509.36 424.60 522.07 443.91 545.66 435.06
  C 562.38 428.78 566.45 418.62 562.73 401.54
  C 559.28 385.72 552.15 376.89 537.54 369.99
  C 530.33 366.59 504.82 356.47 507.25 346.34
  Q 507.37 345.83 507.87 345.71
  L 512.94 344.45
  A 1.94 1.94 0.0 0 1 515.16 345.52
  L 519.11 354.09
  A 0.92 0.91 -23.1 0 0 520.26 354.55
  L 539.68 346.99
  A 1.07 1.07 0.0 0 0 540.34 345.76
  C 538.21 336.40 532.06 328.27 523.29 324.43
  C 510.67 318.89 493.95 324.44 487.81 336.46"
        />
        <path
          stroke="#6c521f"
          vector-effect="non-scaling-stroke"
          d="
  M 512.41 426.88
  A 1.39 1.39 0.0 0 0 510.53 426.28
  L 491.55 436.17
  A 1.39 1.39 0.0 0 1 489.68 435.58
  L 445.95 352.03
  A 1.39 1.39 0.0 0 0 444.06 351.45
  L 425.69 361.27
  A 1.39 1.39 0.0 0 0 425.11 363.14
  L 478.10 464.14
  A 1.39 1.39 0.0 0 0 479.98 464.73
  L 519.58 443.99
  A 1.39 1.39 0.0 0 0 520.18 442.13
  L 512.41 426.88"
        />
        <path
          stroke="#6c521f"
          vector-effect="non-scaling-stroke"
          d="
  M 973.85 404.57
  A 0.97 0.97 0.0 0 1 973.51 403.25
  L 983.75 385.52
  A 0.97 0.97 0.0 0 1 985.08 385.17
  L 1003.19 395.90
  A 0.97 0.97 0.0 0 0 1004.52 395.56
  L 1015.04 377.68
  A 0.97 0.97 0.0 0 0 1014.70 376.36
  L 975.99 353.51
  A 0.97 0.97 0.0 0 0 974.66 353.86
  L 916.32 452.87
  A 0.97 0.97 0.0 0 0 916.66 454.19
  L 956.64 477.85
  A 0.97 0.97 0.0 0 0 957.97 477.52
  L 968.80 459.55
  A 0.97 0.97 0.0 0 0 968.47 458.22
  L 949.24 446.56
  A 0.97 0.97 0.0 0 1 948.90 445.25
  L 961.11 424.07
  A 0.97 0.97 0.0 0 1 962.45 423.72
  L 979.70 434.00
  A 0.97 0.97 0.0 0 0 981.03 433.65
  L 991.24 416.07
  A 0.97 0.97 0.0 0 0 990.90 414.75
  L 973.85 404.57"
        />
        <path
          stroke="#6c521f"
          vector-effect="non-scaling-stroke"
          d="
  M 465.31 448.18
  A 1.13 1.13 0.0 0 0 463.75 447.86
  L 445.19 460.17
  A 1.13 1.13 0.0 0 1 443.63 459.85
  L 430.28 439.61
  A 1.13 1.13 0.0 0 1 430.59 438.05
  L 446.76 427.20
  A 1.13 1.13 0.0 0 0 447.07 425.63
  L 435.93 409.10
  A 1.13 1.13 0.0 0 0 434.37 408.79
  L 417.92 419.68
  A 1.13 1.13 0.0 0 1 416.36 419.37
  L 405.05 402.58
  A 1.13 1.13 0.0 0 1 405.36 401.01
  L 422.48 389.54
  A 1.13 1.13 0.0 0 0 422.80 387.97
  L 411.46 370.96
  A 1.13 1.13 0.0 0 0 409.89 370.65
  L 373.05 395.48
  A 1.13 1.13 0.0 0 0 372.74 397.05
  L 436.62 492.23
  A 1.13 1.13 0.0 0 0 438.19 492.54
  L 476.42 466.94
  A 1.13 1.13 0.0 0 0 476.73 465.37
  L 465.31 448.18"
        />
        <path
          stroke="#6c521f"
          vector-effect="non-scaling-stroke"
          d="
  M 1005.97 496.23
  L 1007.91 492.79
  A 1.79 1.79 0.0 0 0 1007.43 490.47
  L 990.89 478.12
  Q 989.92 477.40 990.64 476.42
  Q 1017.67 439.92 1045.16 402.91
  Q 1046.42 401.22 1047.02 399.94
  Q 1047.31 399.32 1046.76 398.92
  L 1029.20 386.21
  Q 1028.65 385.81 1028.24 386.36
  L 959.88 478.37
  A 1.70 1.69 -54.7 0 0 960.29 480.79
  Q 986.59 498.66 1010.02 519.73
  C 1011.54 521.10 1012.40 521.41 1013.93 519.89
  Q 1017.90 515.93 1025.70 509.38
  Q 1026.14 509.01 1026.54 509.42
  L 1035.11 517.98
  Q 1035.85 518.73 1035.21 519.56
  L 1024.78 533.19
  A 0.53 0.52 -50.4 0 0 1024.84 533.90
  Q 1040.96 548.75 1053.75 566.55
  A 1.46 1.46 0.0 0 0 1055.85 566.83
  L 1095.23 534.92
  Q 1095.73 534.51 1096.27 534.86
  C 1102.38 538.82 1097.98 543.91 1094.19 546.95
  Q 1080.07 558.26 1060.94 574.21
  Q 1060.53 574.54 1060.87 574.95
  L 1073.81 590.84
  Q 1074.81 592.06 1076.04 591.07
  Q 1092.27 577.98 1108.31 565.28
  C 1115.19 559.84 1116.46 556.21 1117.60 547.70
  Q 1117.68 547.08 1118.28 547.26
  C 1130.18 551.00 1141.74 541.01 1149.89 532.70
  C 1159.50 522.89 1160.91 514.48 1152.46 503.29
  Q 1142.20 489.71 1131.47 476.49
  Q 1131.11 476.04 1130.56 476.21
  Q 1129.31 476.59 1127.95 477.70
  Q 1086.21 511.57 1043.68 546.02
  A 0.41 0.40 77.2 0 1 1043.03 545.61
  Q 1043.17 545.02 1043.98 543.99
  Q 1077.73 501.09 1111.48 458.19
  Q 1112.89 456.41 1111.08 454.68
  Q 1097.74 441.95 1084.82 430.06
  Q 1083.83 429.15 1082.82 430.03
  L 1006.30 496.50
  A 0.22 0.22 0.0 0 1 1005.97 496.23"
        />
        <path
          stroke="#6c521f"
          vector-effect="non-scaling-stroke"
          d="
  M 348.85 498.92
  A 0.18 0.18 0.0 0 1 349.08 498.65
  L 394.45 529.07
  A 1.17 1.17 0.0 0 0 395.92 528.93
  L 411.00 513.89
  Q 411.49 513.40 411.00 512.90
  L 329.93 430.90
  A 0.67 0.66 -44.7 0 0 328.98 430.90
  L 314.62 445.26
  Q 313.61 446.27 314.60 447.29
  L 349.83 483.36
  A 0.20 0.20 0.0 0 1 349.57 483.67
  L 306.55 454.38
  A 1.08 1.08 0.0 0 0 305.20 454.49
  L 289.28 469.99
  A 0.93 0.93 0.0 0 0 289.27 471.31
  Q 329.57 512.31 370.22 553.53
  Q 370.78 554.10 370.21 554.25
  A 0.32 0.31 -33.3 0 1 369.94 554.20
  Q 361.82 548.14 354.04 541.60
  A 1.64 1.63 -50.7 0 0 351.71 541.84
  L 338.43 558.56
  A 1.48 1.48 0.0 0 1 336.35 558.80
  L 317.52 543.77
  A 0.98 0.98 0.0 0 1 317.37 542.40
  L 329.57 526.88
  A 1.20 1.20 0.0 0 0 329.37 525.19
  L 314.26 513.22
  Q 312.98 512.20 311.96 513.49
  L 300.18 528.28
  Q 299.27 529.43 298.12 528.52
  L 282.19 515.86
  A 0.71 0.71 0.0 0 1 282.07 514.86
  L 295.27 498.05
  A 0.66 0.66 0.0 0 0 295.17 497.13
  L 278.93 483.89
  Q 278.46 483.51 278.00 483.90
  Q 276.98 484.77 275.78 486.29
  Q 262.58 502.97 249.71 519.40
  A 1.05 1.05 0.0 0 0 249.89 520.88
  L 339.64 591.88
  Q 340.16 592.29 340.68 591.88
  Q 341.89 590.92 343.23 589.22
  C 354.64 574.84 371.26 554.44 386.47 538.42
  Q 386.89 537.98 386.47 537.54
  L 348.85 498.92"
        />
        <path
          stroke="#58410a"
          vector-effect="non-scaling-stroke"
          d="
  M 430.95 1113.78
  Q 432.61 1114.16 434.50 1114.16
  Q 707.13 1113.95 979.77 1113.48
  Q 980.35 1113.48 980.60 1112.95
  Q 981.20 1111.68 981.20 1109.69
  Q 981.04 912.97 980.12 716.25
  C 979.98 684.98 973.53 655.12 962.30 625.91
  Q 922.46 522.31 821.99 473.34
  C 818.33 471.55 814.39 470.10 810.56 468.68
  C 805.48 466.80 800.63 463.45 794.68 462.14
  C 784.90 459.99 775.38 456.37 765.53 454.88
  Q 758.81 453.87 752.11 452.65
  C 741.27 450.69 731.26 450.26 719.07 448.83
  C 708.36 447.57 697.66 448.43 686.97 449.55
  C 674.85 450.82 660.98 451.36 648.18 454.41
  C 635.65 457.40 625.67 458.87 614.02 464.07
  C 607.95 466.77 600.67 467.14 595.31 469.55
  C 506.03 509.63 443.07 592.05 431.23 689.56
  C 429.65 702.59 429.26 719.46 429.25 731.50
  Q 429.24 900.33 429.26 1069.17
  Q 429.26 1071.46 429.54 1084.20
  C 429.74 1093.57 428.98 1102.77 429.59 1112.18
  A 1.77 1.75 -85.6 0 0 430.95 1113.78"
        />
        <path
          stroke="#6c521f"
          vector-effect="non-scaling-stroke"
          d="
  M 1077.26 594.77
  C 1084.46 608.94 1097.21 635.75 1117.10 632.97
  Q 1122.17 632.26 1133.64 625.80
  Q 1165.43 607.91 1188.76 590.76
  C 1208.46 576.28 1185.72 546.49 1175.79 533.43
  A 0.77 0.77 0.0 0 0 1174.78 533.24
  L 1077.82 592.79
  Q 1076.63 593.52 1077.26 594.77"
        />
        <path
          stroke="#6c521f"
          vector-effect="non-scaling-stroke"
          d="
  M 277.95 568.96
  C 275.84 551.49 251.33 535.04 235.28 545.37
  Q 231.85 547.58 227.36 554.14
  Q 218.43 567.18 210.26 580.65
  A 0.81 0.80 -59.1 0 0 210.53 581.75
  L 308.41 641.34
  Q 308.93 641.66 309.30 641.18
  C 315.35 633.30 336.11 604.51 329.22 594.29
  C 319.87 580.41 296.57 560.35 278.67 569.34
  A 0.50 0.50 0.0 0 1 277.95 568.96"
        />
        <path
          stroke="#58410a"
          vector-effect="non-scaling-stroke"
          d="
  M 430.30 1174.07
  C 429.19 1178.15 433.08 1180.29 436.75 1180.26
  C 610.42 1179.06 784.10 1178.07 957.77 1176.56
  Q 958.33 1176.56 958.47 1177.10
  C 959.16 1179.86 959.40 1192.85 965.07 1188.72
  Q 973.92 1182.28 982.60 1175.62
  C 986.89 1172.33 984.51 1169.41 981.11 1167.02
  Q 973.00 1161.32 964.91 1155.59
  C 958.87 1151.31 959.18 1164.48 958.83 1167.10
  Q 958.76 1167.62 958.23 1167.65
  Q 953.12 1167.95 948.00 1167.99
  Q 694.24 1169.96 440.49 1172.02
  C 438.11 1172.04 430.98 1171.59 430.30 1174.07"
        />
        <path
          stroke="#6c521f"
          vector-effect="non-scaling-stroke"
          d="
  M 748.19 367.44
  L 756.21 368.54
  A 0.90 0.90 0.0 0 0 757.23 367.67
  Q 757.76 339.13 758.05 311.75
  Q 758.06 311.07 757.47 310.66
  A 0.41 0.41 0.0 0 0 756.83 310.93
  L 747.53 366.53
  A 0.78 0.78 0.0 0 0 748.19 367.44"
        />
        <path
          stroke="#6c521f"
          vector-effect="non-scaling-stroke"
          d="
  M 586.98 380.89
  L 595.14 379.04
  A 1.49 1.48 74.4 0 0 596.22 377.12
  L 578.08 323.21
  A 0.58 0.58 0.0 0 0 577.18 322.94
  Q 576.61 323.39 576.72 324.01
  Q 581.54 352.29 586.47 380.54
  A 0.42 0.42 0.0 0 0 586.98 380.89"
        />
        <path
          stroke="#6c521f"
          vector-effect="non-scaling-stroke"
          d="
  M 1041.07 496.70
  C 1042.66 499.23 1045.20 501.21 1047.36 503.17
  Q 1047.85 503.61 1048.26 503.10
  L 1084.90 456.84
  A 0.44 0.44 0.0 0 0 1084.26 456.25
  L 1041.19 495.77
  Q 1040.75 496.18 1041.07 496.70"
        />
        <path
          stroke="#6c521f"
          vector-effect="non-scaling-stroke"
          d="
  M 1115.94 525.81
  C 1121.47 528.73 1130.32 519.79 1133.46 515.81
  Q 1133.86 515.30 1133.53 514.76
  L 1129.46 508.10
  Q 1129.05 507.44 1128.45 507.93
  L 1114.04 519.89
  Q 1113.60 520.25 1113.56 520.81
  Q 1113.27 524.40 1115.94 525.81"
        />
        <path
          stroke="#58410a"
          vector-effect="non-scaling-stroke"
          d="
  M 678.40 517.53
  C 697.43 524.22 703.26 548.68 700.19 565.97
  C 697.81 579.41 678.80 600.96 690.73 613.40
  A 0.42 0.42 0.0 0 0 691.42 613.27
  C 710.49 566.58 729.51 519.91 748.79 473.35
  C 750.11 470.15 750.36 466.14 752.82 462.64
  A 0.77 0.77 0.0 0 0 752.32 461.44
  C 742.76 459.76 733.24 459.62 723.70 458.28
  C 705.50 455.71 689.16 458.26 671.06 459.66
  C 658.62 460.62 647.08 463.97 635.50 466.17
  C 631.25 466.98 627.21 469.00 622.80 469.83
  A 1.17 1.17 0.0 0 0 621.90 471.30
  L 651.56 575.57
  A 1.25 1.24 -26.7 0 0 653.52 576.21
  Q 661.23 570.32 666.97 561.98
  C 674.02 551.73 673.21 536.42 660.68 531.33
  Q 655.85 529.37 649.87 529.10
  C 646.72 528.96 644.29 525.67 647.43 523.45
  C 656.19 517.30 668.18 513.94 678.40 517.53"
        />
        <path
          stroke="#58410a"
          vector-effect="non-scaling-stroke"
          d="
  M 766.44 554.31
  C 776.54 557.49 783.77 563.19 791.31 570.95
  Q 792.14 571.80 793.02 571.00
  L 860.63 509.11
  Q 861.97 507.89 860.49 506.82
  Q 839.51 491.75 816.98 481.38
  C 808.98 477.69 797.43 473.39 787.77 469.06
  Q 787.37 468.88 786.93 468.97
  L 784.59 469.48
  Q 784.11 469.58 783.66 469.37
  Q 773.36 464.60 762.12 463.02
  Q 761.67 462.96 761.53 463.39
  Q 759.61 469.39 756.23 477.74
  Q 729.55 543.75 702.87 610.02
  A 0.72 0.72 0.0 0 0 703.54 611.00
  L 704.08 611.00
  Q 704.60 611.00 704.98 610.65
  C 718.41 598.37 732.45 596.72 750.19 596.67
  Q 757.59 596.64 763.12 592.54
  C 774.84 583.86 770.96 570.19 763.57 560.27
  Q 763.27 559.87 763.26 559.37
  C 763.22 557.44 762.92 553.21 766.44 554.31"
        />
        <path
          stroke="#58410a"
          vector-effect="non-scaling-stroke"
          d="
  M 526.45 530.69
  Q 541.24 541.62 556.18 552.32
  C 559.15 554.45 560.50 556.11 564.34 555.97
  C 587.27 555.17 607.61 568.80 615.40 590.32
  C 616.73 593.97 617.77 599.13 618.73 602.52
  C 622.05 614.24 631.85 619.35 643.60 620.12
  Q 644.14 620.15 644.15 619.61
  Q 644.40 607.56 644.74 595.50
  C 644.88 590.34 644.65 584.88 643.44 580.56
  Q 628.52 527.68 613.54 474.81
  Q 613.41 474.34 612.92 474.36
  Q 608.57 474.49 606.92 475.15
  Q 560.83 493.76 524.11 527.26
  Q 523.69 527.65 523.88 528.19
  C 524.29 529.38 525.55 530.03 526.45 530.69"
        />
        <path
          stroke="#58410a"
          vector-effect="non-scaling-stroke"
          d="
  M 937.75 593.02
  C 920.56 563.08 897.12 535.15 869.88 513.81
  A 0.98 0.97 -47.2 0 0 868.62 513.86
  L 797.30 579.08
  A 1.83 1.81 -19.1 0 0 796.72 580.26
  C 793.79 609.82 775.11 625.64 747.92 632.89
  C 735.82 636.11 730.69 645.87 730.37 657.85
  A 0.69 0.69 0.0 0 0 731.11 658.56
  Q 742.09 657.71 752.44 657.46
  C 760.43 657.26 769.23 654.02 777.68 651.21
  Q 857.05 624.86 936.28 598.08
  C 938.84 597.22 939.00 595.20 937.75 593.02"
        />
        <path
          stroke="#d6a533"
          vector-effect="non-scaling-stroke"
          d="
  M 658.19 619.60
  C 664.97 618.09 673.46 618.67 680.99 620.03
  A 0.67 0.67 0.0 0 0 681.72 619.10
  C 678.48 611.79 676.22 605.50 678.07 597.42
  C 679.52 591.10 685.26 582.42 688.03 575.83
  Q 698.80 550.13 681.07 529.47
  Q 678.21 526.15 673.91 527.45
  A 0.75 0.74 62.9 0 0 673.54 528.62
  C 683.08 541.01 684.37 553.44 674.46 566.20
  C 661.94 582.33 649.08 594.44 654.18 617.23
  C 654.77 619.89 655.58 620.18 658.19 619.60"
        />
        <path
          stroke="#58410a"
          vector-effect="non-scaling-stroke"
          d="
  M 476.25 587.72
  Q 534.19 616.45 591.97 644.42
  C 592.26 644.56 592.77 644.51 593.05 644.50
  A 0.67 0.67 0.0 0 0 593.60 643.50
  Q 586.82 631.36 583.74 618.07
  C 581.01 606.26 585.87 589.18 573.01 582.52
  Q 557.95 574.72 546.91 587.29
  Q 546.59 587.65 546.11 587.72
  Q 543.47 588.07 542.18 586.30
  C 538.60 581.43 550.73 566.36 553.82 562.66
  A 0.79 0.78 -52.2 0 0 553.68 561.52
  Q 536.42 548.88 519.16 536.40
  C 517.59 535.26 516.77 534.09 514.94 535.93
  Q 492.14 558.92 475.92 586.61
  A 0.79 0.79 0.0 0 0 476.25 587.72"
        />
        <path
          stroke="#d6a533"
          vector-effect="non-scaling-stroke"
          d="
  M 562.62 570.14
  C 569.47 571.39 574.96 572.04 580.54 576.55
  C 586.88 581.68 589.94 590.66 590.97 598.75
  C 593.37 617.75 594.02 634.74 612.09 646.07
  Q 612.54 646.35 613.06 646.29
  C 616.39 645.93 628.11 632.77 631.14 629.72
  A 1.39 1.39 0.0 0 0 630.75 627.49
  C 620.71 622.64 615.31 619.20 612.00 607.99
  C 609.02 597.89 607.33 590.69 601.44 583.36
  C 594.04 574.16 574.51 557.44 562.09 568.19
  A 1.12 1.12 0.0 0 0 562.62 570.14"
        />
        <path
          stroke="#d6a533"
          vector-effect="non-scaling-stroke"
          d="
  M 706.47 629.54
  C 711.18 635.30 716.48 640.88 721.93 645.04
  Q 723.37 646.14 723.87 644.39
  C 730.11 622.76 747.35 625.84 763.45 617.92
  Q 785.61 607.01 785.10 580.47
  C 785.09 579.75 784.65 578.54 784.46 577.78
  Q 784.33 577.26 783.84 577.03
  C 781.69 576.04 780.29 577.22 779.90 579.41
  C 777.51 593.09 769.85 602.31 755.98 605.02
  C 749.39 606.30 738.93 604.46 731.20 606.36
  Q 715.12 610.34 705.92 624.65
  C 704.66 626.61 705.11 627.88 706.47 629.54"
        />
        <path
          stroke="#58410a"
          vector-effect="non-scaling-stroke"
          d="
  M 439.97 748.39
  Q 441.66 748.71 443.25 748.27
  Q 514.07 728.51 585.95 708.32
  A 1.03 1.03 0.0 0 0 585.84 706.32
  C 576.34 704.75 569.79 700.65 561.69 694.08
  C 554.26 688.05 541.86 676.11 531.35 678.04
  C 524.11 679.37 518.30 685.41 516.18 692.25
  C 515.18 695.46 515.42 700.61 512.82 704.61
  A 1.12 1.11 40.6 0 1 511.06 704.74
  C 494.21 686.02 502.43 661.35 524.95 652.95
  Q 546.69 644.84 566.74 654.72
  C 578.13 660.33 587.41 670.81 600.55 660.54
  Q 601.01 660.18 600.82 659.63
  Q 600.38 658.34 598.85 657.60
  Q 536.11 627.18 473.28 596.93
  C 471.97 596.30 469.66 596.19 468.99 597.54
  Q 434.10 667.82 438.12 746.26
  A 2.29 2.29 0.0 0 0 439.97 748.39"
        />
        <path
          stroke="#58410a"
          vector-effect="non-scaling-stroke"
          d="
  M 772.02 663.95
  C 778.61 673.40 789.02 683.07 800.42 685.42
  C 808.80 687.15 816.27 680.88 819.73 673.96
  C 821.54 670.35 821.74 665.73 822.49 661.53
  A 2.40 2.39 86.6 0 1 824.13 659.67
  Q 826.51 658.93 827.88 661.22
  Q 837.89 677.88 831.92 696.59
  Q 831.12 699.13 833.51 699.44
  Q 900.37 708.14 967.27 716.58
  Q 968.66 716.76 969.49 716.77
  A 1.77 1.77 0.0 0 0 971.30 714.93
  C 969.79 677.59 962.32 639.11 944.51 605.96
  A 1.36 1.35 66.7 0 0 942.89 605.31
  L 772.72 661.84
  Q 770.96 662.43 772.02 663.95"
        />
        <path
          stroke="#d7b041"
          vector-effect="non-scaling-stroke"
          d="
  M 722.46 682.18
  A 53.95 53.95 0.0 0 0 668.51 628.23
  A 53.95 53.95 0.0 0 0 614.56 682.18
  A 53.95 53.95 0.0 0 0 668.51 736.13
  A 53.95 53.95 0.0 0 0 722.46 682.18"
        />
        <path
          stroke="#d6a533"
          vector-effect="non-scaling-stroke"
          d="
  M 513.88 678.99
  Q 514.21 679.18 514.50 678.92
  C 523.43 670.56 532.41 665.70 544.45 671.38
  C 564.91 681.03 574.93 700.33 600.85 697.87
  C 603.27 697.64 604.63 696.74 604.76 694.25
  Q 605.44 682.13 605.81 670.02
  A 0.81 0.81 0.0 0 0 604.53 669.33
  C 594.41 676.41 585.72 675.13 574.98 669.72
  C 567.51 665.96 558.57 659.84 550.76 659.73
  C 536.57 659.52 520.46 659.42 513.29 674.41
  C 512.31 676.44 511.53 677.65 513.88 678.99"
        />
        <path
          stroke="#d6a533"
          vector-effect="non-scaling-stroke"
          d="
  M 733.47 694.36
  C 752.14 683.22 762.71 696.91 778.79 702.63
  C 795.82 708.70 814.97 704.58 824.79 688.38
  Q 825.02 687.99 824.70 687.69
  C 822.41 685.49 812.09 692.92 811.17 693.23
  Q 795.98 698.36 784.55 688.95
  C 769.27 676.37 757.98 663.42 735.77 666.92
  Q 734.39 667.13 733.22 667.87
  Q 732.75 668.16 732.75 668.71
  L 732.75 693.95
  A 0.48 0.48 0.0 0 0 733.47 694.36"
        />
        <path
          stroke="#58410a"
          vector-effect="non-scaling-stroke"
          d="
  M 730.31 710.65
  Q 800.68 755.42 870.92 799.58
  Q 871.89 800.19 872.96 800.42
  A 1.89 1.89 0.0 0 0 875.26 798.57
  Q 875.22 781.19 875.29 763.81
  Q 875.29 762.70 875.70 761.36
  Q 875.85 760.87 876.28 760.59
  C 900.33 745.11 925.18 737.14 953.00 733.11
  C 958.95 732.25 964.18 730.95 969.74 729.46
  Q 971.03 729.12 971.02 727.71
  A 0.92 0.91 3.7 0 0 970.23 726.82
  Q 901.13 717.29 831.59 708.86
  C 820.81 707.55 810.76 711.88 802.49 713.48
  C 787.38 716.40 776.65 711.81 763.39 705.32
  C 751.11 699.31 740.63 697.47 730.05 708.54
  A 1.38 1.38 0.0 0 0 730.31 710.65"
        />
        <path
          stroke="#58410a"
          vector-effect="non-scaling-stroke"
          d="
  M 437.72 759.62
  Q 437.26 761.74 437.26 763.00
  Q 437.21 790.16 437.37 896.06
  Q 437.38 898.27 437.59 899.29
  Q 438.01 901.36 439.56 899.93
  Q 493.74 850.29 547.19 801.18
  Q 548.74 799.75 549.68 798.52
  Q 550.03 798.05 549.68 797.58
  C 547.37 794.51 544.93 791.24 543.66 787.76
  C 535.72 766.15 559.65 738.81 580.23 734.18
  C 591.57 731.63 604.70 727.83 605.11 713.87
  A 1.29 1.28 -7.1 0 0 603.47 712.60
  L 438.41 758.89
  Q 437.84 759.05 437.72 759.62"
        />
        <path
          stroke="#d6a533"
          vector-effect="non-scaling-stroke"
          d="
  M 614.58 718.55
  C 610.56 726.13 608.17 733.14 599.43 736.91
  C 590.22 740.87 580.17 742.21 571.69 747.52
  C 557.28 756.57 548.35 771.77 553.75 789.03
  A 0.56 0.55 46.5 0 0 554.80 789.06
  C 556.71 783.85 558.45 777.53 561.02 773.26
  C 577.78 745.46 615.48 771.90 632.05 736.94
  A 1.38 1.37 -54.1 0 0 631.81 735.41
  L 615.88 718.37
  A 0.81 0.80 -52.7 0 0 614.58 718.55"
        />
        <path
          stroke="#d6a533"
          vector-effect="non-scaling-stroke"
          d="
  M 705.43 737.01
  C 721.12 742.52 723.16 748.51 727.68 763.57
  C 732.73 780.40 753.15 807.58 774.24 797.22
  C 774.91 796.90 775.39 796.21 775.56 795.54
  A 1.09 1.09 0.0 0 0 774.63 794.19
  Q 753.12 791.79 746.92 773.28
  C 744.69 766.64 744.68 757.43 744.08 749.73
  Q 742.49 729.43 725.33 718.86
  Q 722.74 717.27 720.55 719.56
  Q 712.66 727.79 705.17 735.96
  A 0.65 0.65 0.0 0 0 705.43 737.01"
        />
        <path
          stroke="#58410a"
          vector-effect="non-scaling-stroke"
          d="
  M 755.57 767.17
  C 758.59 780.18 770.29 790.66 783.66 782.85
  C 785.99 781.49 789.88 776.15 791.93 775.88
  C 795.92 775.36 795.52 782.34 794.58 784.82
  Q 793.06 788.79 787.94 796.42
  C 776.55 813.35 758.71 811.50 744.10 800.66
  Q 724.44 786.06 718.02 762.46
  C 715.78 754.25 712.33 746.84 702.74 746.28
  C 700.51 746.15 700.21 747.76 700.78 749.53
  Q 722.47 817.28 744.32 884.98
  C 745.37 888.24 747.20 887.67 749.92 887.16
  Q 776.23 882.19 802.50 877.00
  Q 804.90 876.52 806.39 875.99
  Q 806.92 875.80 807.11 875.27
  Q 808.66 871.13 808.15 866.06
  Q 806.17 846.80 808.33 827.52
  A 1.22 1.22 0.0 0 1 809.19 826.49
  Q 836.87 818.08 864.53 809.85
  Q 866.21 809.35 866.69 808.57
  Q 867.46 807.31 866.21 806.54
  L 754.57 736.89
  A 0.89 0.89 0.0 0 0 753.22 737.58
  Q 752.18 752.51 755.57 767.17"
        />
        <path
          stroke="#58410a"
          vector-effect="non-scaling-stroke"
          d="
  M 921.16 749.56
  Q 914.50 748.63 910.16 753.78
  A 0.59 0.59 0.0 0 0 910.59 754.75
  Q 916.70 754.94 922.50 752.96"
        />
        <path
          stroke="#c9b484"
          vector-effect="non-scaling-stroke"
          d="
  M 922.50 752.96
  Q 946.12 750.25 969.75 747.66
  C 975.62 747.01 973.51 739.29 967.05 740.21
  Q 943.83 743.52 921.16 749.56"
        />
        <path
          stroke="#72737b"
          vector-effect="non-scaling-stroke"
          d="
  M 922.50 752.96
  L 921.16 749.56"
        />
        <path
          stroke="#58410a"
          vector-effect="non-scaling-stroke"
          d="
  M 566.98 796.52
  C 570.82 800.99 575.13 802.89 572.20 809.72
  A 1.02 1.02 0.0 0 1 570.79 810.23
  L 558.69 804.02
  Q 558.16 803.75 557.65 804.04
  Q 556.38 804.77 554.76 806.26
  Q 497.41 858.94 440.07 911.63
  C 438.04 913.50 437.21 915.10 437.21 917.75
  Q 437.24 1003.83 437.26 1090.15
  A 1.43 1.43 0.0 0 0 439.22 1091.48
  Q 440.67 1090.89 441.87 1089.06
  Q 544.21 932.95 645.44 776.12
  C 653.43 763.74 652.65 752.57 641.23 742.68
  A 0.69 0.68 -54.2 0 0 640.19 742.85
  Q 631.72 757.24 616.76 763.81
  C 608.63 767.38 596.46 765.50 590.20 771.69
  Q 578.43 783.31 567.00 795.39
  A 0.85 0.84 46.3 0 0 566.98 796.52"
        />
        <path
          stroke="#d6a533"
          vector-effect="non-scaling-stroke"
          d="
  M 651.24 828.57
  C 653.69 833.30 658.61 837.62 664.27 838.43
  A 0.51 0.51 0.0 0 0 664.73 837.59
  C 645.44 815.50 659.62 802.20 673.83 784.08
  C 682.95 772.43 686.59 761.28 682.27 746.33
  Q 682.11 745.75 681.50 745.75
  L 656.81 745.75
  A 0.56 0.55 78.9 0 0 656.30 746.52
  C 660.08 755.90 662.15 763.35 657.60 773.09
  C 654.26 780.26 649.44 788.26 647.53 794.99
  Q 642.68 812.07 651.24 828.57"
        />
        <path
          stroke="#b6b185"
          vector-effect="non-scaling-stroke"
          d="
  M 885.33 804.29
  A 0.92 0.90 -14.2 0 0 886.25 804.83
  L 970.03 796.12
  A 1.17 1.16 87.3 0 0 971.08 794.96
  L 970.80 758.86
  A 1.74 1.74 0.0 0 0 968.85 757.14
  L 885.53 767.26
  Q 883.95 767.45 883.97 769.03
  Q 884.16 784.09 884.88 799.98
  C 884.94 801.15 884.82 803.10 885.33 804.29"
        />
        <path
          stroke="#58410a"
          vector-effect="non-scaling-stroke"
          d="
  M 668.63 825.89
  C 672.43 832.60 679.72 835.90 687.26 834.57
  Q 687.78 834.48 688.18 834.81
  C 691.83 837.81 689.87 840.79 686.67 842.75
  C 674.89 849.97 663.27 848.83 650.86 843.38
  A 0.88 0.88 0.0 0 0 649.67 843.92
  Q 614.68 954.81 579.80 1065.69
  C 579.69 1066.02 579.74 1066.68 579.75 1066.97
  A 1.08 1.07 -7.7 0 0 581.08 1067.98
  L 608.68 1061.39
  Q 609.23 1061.26 609.28 1060.69
  Q 609.44 1059.00 609.31 1056.00
  Q 608.68 1040.35 608.18 1003.75
  C 608.15 1002.07 608.75 997.72 611.23 996.94
  Q 651.63 984.27 692.03 971.60
  Q 696.05 970.34 699.79 968.77
  A 1.56 1.56 0.0 0 0 700.75 967.33
  Q 700.65 934.38 701.06 901.50
  Q 701.12 896.36 706.82 895.34
  Q 720.21 892.92 734.30 890.26
  Q 735.89 889.96 735.69 888.36
  Q 735.55 887.23 735.00 885.50
  Q 715.60 824.59 696.11 763.71
  C 695.72 762.48 694.91 761.94 693.67 761.98
  A 0.90 0.89 1.4 0 0 692.81 762.79
  Q 691.49 777.69 681.73 788.99
  C 672.36 799.85 659.38 809.58 668.63 825.89"
        />
        <path
          stroke="#d6a533"
          vector-effect="non-scaling-stroke"
          d="
  M 577.61 769.08
  C 574.17 770.68 570.52 773.84 569.16 777.53
  Q 568.96 778.09 569.40 778.48
  C 570.92 779.83 577.01 771.10 578.10 769.71
  A 0.41 0.41 0.0 0 0 577.61 769.08"
        />
        <path
          stroke="#c9b484"
          vector-effect="non-scaling-stroke"
          d="
  M 860.73 822.15
  C 864.53 823.75 877.76 821.37 880.53 821.18
  Q 922.82 818.24 965.15 815.79
  C 970.08 815.50 973.64 813.73 972.23 808.15
  C 971.46 805.08 966.28 806.41 964.01 806.62
  Q 927.70 809.97 891.40 813.50
  C 879.35 814.68 870.86 816.53 860.71 821.10
  A 0.57 0.57 0.0 0 0 860.73 822.15"
        />
        <path
          stroke="#58410a"
          vector-effect="non-scaling-stroke"
          d="
  M 445.63 1100.61
  A 1.68 1.67 -22.9 0 0 447.45 1101.34
  Q 505.62 1086.94 563.70 1072.55
  C 568.65 1071.33 568.73 1071.24 570.26 1066.41
  Q 606.13 952.78 641.99 839.15
  C 642.96 836.09 642.30 835.24 641.33 832.43
  Q 637.54 821.49 636.20 809.60
  A 0.40 0.40 0.0 0 0 635.52 809.36
  C 634.91 809.97 634.14 810.64 633.65 811.37
  Q 539.79 954.66 445.95 1097.96
  Q 444.94 1099.50 445.63 1100.61"
        />
        <path
          stroke="#b6b185"
          vector-effect="non-scaling-stroke"
          d="
  M 970.7184 828.3428
  A 3.57 3.57 0.0 0 0 966.9488 824.9842
  L 819.1742 833.5048
  A 3.57 3.57 0.0 0 0 815.8157 837.2744
  L 817.8016 871.7172
  A 3.57 3.57 0.0 0 0 821.5712 875.0758
  L 969.3458 866.5552
  A 3.57 3.57 0.0 0 0 972.7043 862.7856
  L 970.7184 828.3428"
        />
        <path
          stroke="#c9b484"
          vector-effect="non-scaling-stroke"
          d="
  M 780.42 895.65
  C 843.53 895.47 906.31 894.10 969.64 895.64
  Q 971.12 895.67 971.09 894.20
  L 970.74 876.75
  A 0.50 0.49 87.8 0 0 970.22 876.26
  Q 894.12 879.60 817.97 883.85
  C 796.75 885.03 775.84 890.07 755.72 896.83
  A 0.22 0.22 0.0 0 0 755.80 897.26
  C 764.00 896.60 772.24 895.68 780.42 895.65"
        />
        <path
          stroke="#b6b185"
          vector-effect="non-scaling-stroke"
          d="
  M 710.91 966.91
  Q 713.63 967.34 716.50 967.50
  Q 842.27 974.31 968.04 981.02
  C 969.61 981.10 971.50 981.06 971.50 979.26
  Q 971.51 943.60 971.50 907.87
  A 1.59 1.59 0.0 0 0 969.91 906.28
  L 711.68 905.43
  A 2.15 2.14 0.1 0 0 709.52 907.57
  L 709.50 965.26
  Q 709.50 966.69 710.91 966.91"
        />
        <path
          stroke="#c9b484"
          vector-effect="non-scaling-stroke"
          d="
  M 649.22 998.33
  Q 650.50 1000.10 651.50 1000.21
  C 682.68 1003.55 726.05 1006.83 772.40 1010.97
  Q 869.44 1019.64 966.51 1027.85
  Q 968.49 1028.01 969.95 1028.02
  A 1.55 1.55 0.0 0 0 971.50 1026.47
  L 971.50 992.26
  Q 971.50 990.49 969.74 990.50
  C 956.50 990.54 943.42 989.28 930.24 988.41
  C 913.71 987.33 896.37 986.81 879.43 985.86
  C 832.90 983.27 786.42 980.67 739.92 977.49
  Q 726.98 976.61 719.94 976.94
  C 696.47 978.06 673.14 985.05 651.75 994.50
  Q 650.77 994.94 649.14 995.99
  Q 648.75 996.25 648.28 996.25
  L 639.80 996.26
  A 0.56 0.55 -23.5 0 0 639.42 997.22
  Q 643.39 1000.89 648.27 998.12
  Q 648.84 997.80 649.22 998.33"
        />
        <path
          stroke="#b6b185"
          vector-effect="non-scaling-stroke"
          d="
  M 619.26 1060.43
  Q 621.09 1060.94 622.24 1061.09
  Q 780.68 1081.30 939.22 1100.72
  C 951.16 1102.18 960.85 1103.60 970.24 1103.17
  Q 970.78 1103.15 970.78 1102.60
  L 970.73 1038.20
  A 0.84 0.84 0.0 0 0 969.97 1037.36
  Q 803.24 1022.17 636.50 1008.00
  Q 631.10 1007.54 618.38 1008.81
  Q 617.85 1008.87 617.66 1009.36
  Q 617.19 1010.61 617.23 1012.07
  Q 617.97 1035.83 618.49 1059.44
  A 1.06 1.05 -82.9 0 0 619.26 1060.43"
        />
        <path
          stroke="#c9b484"
          vector-effect="non-scaling-stroke"
          d="
  M 858.96 1104.50
  Q 877.49 1107.43 896.36 1105.67
  A 0.71 0.71 0.0 0 0 896.80 1104.47
  C 895.28 1102.90 865.55 1102.06 861.75 1102.46"
        />
        <path
          stroke="#58410a"
          vector-effect="non-scaling-stroke"
          d="
  M 861.75 1102.46
  C 862.14 1100.72 847.79 1098.42 846.50 1098.25
  Q 729.93 1083.37 613.14 1070.32
  C 611.18 1070.10 608.90 1070.37 606.96 1070.86
  Q 541.61 1087.27 475.98 1103.94
  A 0.65 0.64 -12.7 0 0 475.50 1104.69
  L 475.58 1105.09
  Q 475.69 1105.64 476.25 1105.65
  Q 563.84 1106.28 651.44 1106.29
  C 686.96 1106.29 722.15 1107.03 752.44 1107.10
  Q 803.97 1107.22 858.96 1104.50"
        />
        <path
          stroke="#72737b"
          vector-effect="non-scaling-stroke"
          d="
  M 861.75 1102.46
  L 858.96 1104.50"
        />
        <path
          stroke="#6c521f"
          vector-effect="non-scaling-stroke"
          d="
  M 1112.47 610.12
  A 0.96 0.96 0.0 0 0 1113.64 610.27
  Q 1140.05 594.79 1165.93 578.26
  C 1171.90 574.45 1176.17 572.39 1171.91 564.93
  A 1.87 1.86 59.3 0 0 1169.31 564.26
  L 1107.39 602.32
  A 1.48 1.48 0.0 0 0 1107.11 604.62
  L 1112.47 610.12"
        />
        <path
          stroke="#6c521f"
          vector-effect="non-scaling-stroke"
          d="
  M 256.19 582.56
  Q 257.58 583.37 258.54 583.68
  Q 259.11 583.86 259.51 583.43
  C 261.30 581.53 263.47 576.80 260.77 574.76
  Q 252.68 568.65 243.61 564.23
  A 1.32 1.31 31.4 0 0 241.98 564.62
  L 237.76 570.22
  A 0.80 0.79 -55.2 0 0 237.96 571.37
  Q 246.90 577.21 256.19 582.56"
        />
        <path
          stroke="#6c521f"
          vector-effect="non-scaling-stroke"
          d="
  M 277.13 595.32
  Q 289.63 603.09 301.41 610.11
  Q 303.11 611.13 304.79 610.00
  C 307.89 607.93 307.07 602.26 305.05 600.05
  Q 304.44 599.38 299.54 595.88
  C 294.86 592.55 277.98 581.04 276.47 593.96
  A 1.41 1.41 0.0 0 0 277.13 595.32"
        />
      </g>
      <path
        fill="#000000"
        d="
  M 0.00 0.00
  L 1448.00 0.00
  L 1448.00 1448.00
  L 0.00 1448.00
  L 0.00 0.00
  Z
  M 719.46 392.23
  Q 718.95 389.11 718.64 384.76
  Q 715.09 335.66 711.39 285.90
  Q 711.29 284.61 710.01 284.72
  Q 694.71 285.95 678.68 287.38
  Q 677.10 287.52 676.11 287.85
  Q 675.50 288.04 675.46 288.69
  L 671.00 356.19
  A 0.31 0.30 -49.5 0 1 670.40 356.24
  L 656.25 290.28
  A 1.47 1.46 81.8 0 0 654.72 289.13
  L 621.47 291.39
  Q 620.81 291.44 620.77 292.10
  Q 620.65 294.07 620.90 297.32
  Q 624.71 348.54 628.54 400.14
  A 0.49 0.49 0.0 0 1 627.59 400.34
  L 592.31 299.23
  Q 591.94 298.18 590.85 298.44
  Q 573.27 302.70 556.00 306.96
  C 552.94 307.71 553.66 309.06 554.02 311.54
  Q 561.95 367.03 570.16 422.57
  A 1.10 1.10 0.0 0 0 571.50 423.47
  L 591.22 418.58
  A 1.34 1.34 0.0 0 0 592.22 417.05
  L 589.31 400.38
  Q 589.19 399.71 589.85 399.56
  L 601.75 396.79
  A 1.09 1.08 -16.6 0 1 603.02 397.47
  L 608.86 413.47
  A 0.75 0.74 74.2 0 0 609.71 413.95
  C 622.63 411.31 634.48 407.75 648.31 406.67
  Q 648.88 406.63 649.22 406.17
  Q 650.16 404.92 650.01 402.75
  Q 647.28 364.12 644.07 325.91
  A 0.27 0.27 0.0 0 1 644.60 325.83
  L 664.04 404.00
  A 1.69 1.69 0.0 0 0 665.81 405.28
  L 684.35 403.78
  A 1.02 1.00 -0.0 0 0 685.28 402.86
  L 692.14 322.57
  A 0.19 0.19 0.0 0 1 692.52 322.57
  L 698.71 401.48
  A 0.96 0.95 86.0 0 0 699.71 402.36
  Q 719.66 401.49 739.25 405.24
  A 1.21 1.21 0.0 0 0 740.66 404.27
  L 743.73 387.32
  A 1.12 1.11 7.6 0 1 744.93 386.41
  L 756.97 387.53
  A 0.72 0.71 -88.2 0 1 757.61 388.22
  L 758.03 405.89
  Q 758.05 406.53 758.69 406.58
  L 778.23 408.18
  Q 779.75 408.31 779.75 406.78
  Q 779.76 349.73 779.75 292.75
  C 779.75 290.63 778.14 290.97 776.66 290.83
  Q 758.89 289.15 741.12 287.57
  A 1.23 1.23 0.0 0 0 739.80 288.56
  L 719.89 392.23
  Q 719.66 393.45 719.46 392.23
  Z
  M 879.31 385.17
  L 894.81 318.88
  A 0.94 0.94 0.0 0 0 894.19 317.77
  L 875.28 311.56
  A 1.05 1.04 -69.3 0 0 873.99 312.15
  L 846.87 375.22
  A 0.32 0.32 0.0 0 1 846.26 375.02
  L 861.57 308.69
  Q 861.92 307.18 860.44 306.69
  L 842.00 300.55
  Q 840.92 300.19 840.33 301.16
  Q 839.77 302.10 839.38 303.92
  Q 827.89 357.58 816.48 411.24
  Q 816.08 413.10 816.05 414.37
  Q 816.03 415.04 816.66 415.25
  L 842.21 423.76
  A 0.84 0.84 0.0 0 0 843.25 423.30
  L 864.22 375.56
  A 0.31 0.30 -27.4 0 1 864.80 375.74
  L 854.02 426.28
  A 1.37 1.36 -75.0 0 0 854.93 427.87
  L 879.17 435.80
  Q 880.41 436.20 880.95 435.01
  L 928.45 330.08
  A 0.94 0.93 21.5 0 0 927.89 328.80
  L 908.20 322.31
  A 1.34 1.33 -69.0 0 0 906.55 323.05
  L 879.85 385.34
  A 0.29 0.28 -27.2 0 1 879.31 385.17
  Z
  M 487.81 336.46
  C 480.18 351.42 487.64 371.54 502.55 379.46
  C 511.27 384.09 527.00 388.75 534.35 395.88
  C 536.96 398.40 542.31 407.68 540.87 412.05
  C 539.71 415.55 533.23 415.92 531.88 412.67
  Q 528.42 404.32 524.87 396.33
  A 0.95 0.95 0.0 0 0 523.69 395.82
  Q 514.49 398.97 505.49 402.36
  Q 503.60 403.07 504.14 405.08
  C 509.36 424.60 522.07 443.91 545.66 435.06
  C 562.38 428.78 566.45 418.62 562.73 401.54
  C 559.28 385.72 552.15 376.89 537.54 369.99
  C 530.33 366.59 504.82 356.47 507.25 346.34
  Q 507.37 345.83 507.87 345.71
  L 512.94 344.45
  A 1.94 1.94 0.0 0 1 515.16 345.52
  L 519.11 354.09
  A 0.92 0.91 -23.1 0 0 520.26 354.55
  L 539.68 346.99
  A 1.07 1.07 0.0 0 0 540.34 345.76
  C 538.21 336.40 532.06 328.27 523.29 324.43
  C 510.67 318.89 493.95 324.44 487.81 336.46
  Z
  M 512.41 426.88
  A 1.39 1.39 0.0 0 0 510.53 426.28
  L 491.55 436.17
  A 1.39 1.39 0.0 0 1 489.68 435.58
  L 445.95 352.03
  A 1.39 1.39 0.0 0 0 444.06 351.45
  L 425.69 361.27
  A 1.39 1.39 0.0 0 0 425.11 363.14
  L 478.10 464.14
  A 1.39 1.39 0.0 0 0 479.98 464.73
  L 519.58 443.99
  A 1.39 1.39 0.0 0 0 520.18 442.13
  L 512.41 426.88
  Z
  M 973.85 404.57
  A 0.97 0.97 0.0 0 1 973.51 403.25
  L 983.75 385.52
  A 0.97 0.97 0.0 0 1 985.08 385.17
  L 1003.19 395.90
  A 0.97 0.97 0.0 0 0 1004.52 395.56
  L 1015.04 377.68
  A 0.97 0.97 0.0 0 0 1014.70 376.36
  L 975.99 353.51
  A 0.97 0.97 0.0 0 0 974.66 353.86
  L 916.32 452.87
  A 0.97 0.97 0.0 0 0 916.66 454.19
  L 956.64 477.85
  A 0.97 0.97 0.0 0 0 957.97 477.52
  L 968.80 459.55
  A 0.97 0.97 0.0 0 0 968.47 458.22
  L 949.24 446.56
  A 0.97 0.97 0.0 0 1 948.90 445.25
  L 961.11 424.07
  A 0.97 0.97 0.0 0 1 962.45 423.72
  L 979.70 434.00
  A 0.97 0.97 0.0 0 0 981.03 433.65
  L 991.24 416.07
  A 0.97 0.97 0.0 0 0 990.90 414.75
  L 973.85 404.57
  Z
  M 465.31 448.18
  A 1.13 1.13 0.0 0 0 463.75 447.86
  L 445.19 460.17
  A 1.13 1.13 0.0 0 1 443.63 459.85
  L 430.28 439.61
  A 1.13 1.13 0.0 0 1 430.59 438.05
  L 446.76 427.20
  A 1.13 1.13 0.0 0 0 447.07 425.63
  L 435.93 409.10
  A 1.13 1.13 0.0 0 0 434.37 408.79
  L 417.92 419.68
  A 1.13 1.13 0.0 0 1 416.36 419.37
  L 405.05 402.58
  A 1.13 1.13 0.0 0 1 405.36 401.01
  L 422.48 389.54
  A 1.13 1.13 0.0 0 0 422.80 387.97
  L 411.46 370.96
  A 1.13 1.13 0.0 0 0 409.89 370.65
  L 373.05 395.48
  A 1.13 1.13 0.0 0 0 372.74 397.05
  L 436.62 492.23
  A 1.13 1.13 0.0 0 0 438.19 492.54
  L 476.42 466.94
  A 1.13 1.13 0.0 0 0 476.73 465.37
  L 465.31 448.18
  Z
  M 1005.97 496.23
  L 1007.91 492.79
  A 1.79 1.79 0.0 0 0 1007.43 490.47
  L 990.89 478.12
  Q 989.92 477.40 990.64 476.42
  Q 1017.67 439.92 1045.16 402.91
  Q 1046.42 401.22 1047.02 399.94
  Q 1047.31 399.32 1046.76 398.92
  L 1029.20 386.21
  Q 1028.65 385.81 1028.24 386.36
  L 959.88 478.37
  A 1.70 1.69 -54.7 0 0 960.29 480.79
  Q 986.59 498.66 1010.02 519.73
  C 1011.54 521.10 1012.40 521.41 1013.93 519.89
  Q 1017.90 515.93 1025.70 509.38
  Q 1026.14 509.01 1026.54 509.42
  L 1035.11 517.98
  Q 1035.85 518.73 1035.21 519.56
  L 1024.78 533.19
  A 0.53 0.52 -50.4 0 0 1024.84 533.90
  Q 1040.96 548.75 1053.75 566.55
  A 1.46 1.46 0.0 0 0 1055.85 566.83
  L 1095.23 534.92
  Q 1095.73 534.51 1096.27 534.86
  C 1102.38 538.82 1097.98 543.91 1094.19 546.95
  Q 1080.07 558.26 1060.94 574.21
  Q 1060.53 574.54 1060.87 574.95
  L 1073.81 590.84
  Q 1074.81 592.06 1076.04 591.07
  Q 1092.27 577.98 1108.31 565.28
  C 1115.19 559.84 1116.46 556.21 1117.60 547.70
  Q 1117.68 547.08 1118.28 547.26
  C 1130.18 551.00 1141.74 541.01 1149.89 532.70
  C 1159.50 522.89 1160.91 514.48 1152.46 503.29
  Q 1142.20 489.71 1131.47 476.49
  Q 1131.11 476.04 1130.56 476.21
  Q 1129.31 476.59 1127.95 477.70
  Q 1086.21 511.57 1043.68 546.02
  A 0.41 0.40 77.2 0 1 1043.03 545.61
  Q 1043.17 545.02 1043.98 543.99
  Q 1077.73 501.09 1111.48 458.19
  Q 1112.89 456.41 1111.08 454.68
  Q 1097.74 441.95 1084.82 430.06
  Q 1083.83 429.15 1082.82 430.03
  L 1006.30 496.50
  A 0.22 0.22 0.0 0 1 1005.97 496.23
  Z
  M 348.85 498.92
  A 0.18 0.18 0.0 0 1 349.08 498.65
  L 394.45 529.07
  A 1.17 1.17 0.0 0 0 395.92 528.93
  L 411.00 513.89
  Q 411.49 513.40 411.00 512.90
  L 329.93 430.90
  A 0.67 0.66 -44.7 0 0 328.98 430.90
  L 314.62 445.26
  Q 313.61 446.27 314.60 447.29
  L 349.83 483.36
  A 0.20 0.20 0.0 0 1 349.57 483.67
  L 306.55 454.38
  A 1.08 1.08 0.0 0 0 305.20 454.49
  L 289.28 469.99
  A 0.93 0.93 0.0 0 0 289.27 471.31
  Q 329.57 512.31 370.22 553.53
  Q 370.78 554.10 370.21 554.25
  A 0.32 0.31 -33.3 0 1 369.94 554.20
  Q 361.82 548.14 354.04 541.60
  A 1.64 1.63 -50.7 0 0 351.71 541.84
  L 338.43 558.56
  A 1.48 1.48 0.0 0 1 336.35 558.80
  L 317.52 543.77
  A 0.98 0.98 0.0 0 1 317.37 542.40
  L 329.57 526.88
  A 1.20 1.20 0.0 0 0 329.37 525.19
  L 314.26 513.22
  Q 312.98 512.20 311.96 513.49
  L 300.18 528.28
  Q 299.27 529.43 298.12 528.52
  L 282.19 515.86
  A 0.71 0.71 0.0 0 1 282.07 514.86
  L 295.27 498.05
  A 0.66 0.66 0.0 0 0 295.17 497.13
  L 278.93 483.89
  Q 278.46 483.51 278.00 483.90
  Q 276.98 484.77 275.78 486.29
  Q 262.58 502.97 249.71 519.40
  A 1.05 1.05 0.0 0 0 249.89 520.88
  L 339.64 591.88
  Q 340.16 592.29 340.68 591.88
  Q 341.89 590.92 343.23 589.22
  C 354.64 574.84 371.26 554.44 386.47 538.42
  Q 386.89 537.98 386.47 537.54
  L 348.85 498.92
  Z
  M 430.95 1113.78
  Q 432.61 1114.16 434.50 1114.16
  Q 707.13 1113.95 979.77 1113.48
  Q 980.35 1113.48 980.60 1112.95
  Q 981.20 1111.68 981.20 1109.69
  Q 981.04 912.97 980.12 716.25
  C 979.98 684.98 973.53 655.12 962.30 625.91
  Q 922.46 522.31 821.99 473.34
  C 818.33 471.55 814.39 470.10 810.56 468.68
  C 805.48 466.80 800.63 463.45 794.68 462.14
  C 784.90 459.99 775.38 456.37 765.53 454.88
  Q 758.81 453.87 752.11 452.65
  C 741.27 450.69 731.26 450.26 719.07 448.83
  C 708.36 447.57 697.66 448.43 686.97 449.55
  C 674.85 450.82 660.98 451.36 648.18 454.41
  C 635.65 457.40 625.67 458.87 614.02 464.07
  C 607.95 466.77 600.67 467.14 595.31 469.55
  C 506.03 509.63 443.07 592.05 431.23 689.56
  C 429.65 702.59 429.26 719.46 429.25 731.50
  Q 429.24 900.33 429.26 1069.17
  Q 429.26 1071.46 429.54 1084.20
  C 429.74 1093.57 428.98 1102.77 429.59 1112.18
  A 1.77 1.75 -85.6 0 0 430.95 1113.78
  Z
  M 1077.26 594.77
  C 1084.46 608.94 1097.21 635.75 1117.10 632.97
  Q 1122.17 632.26 1133.64 625.80
  Q 1165.43 607.91 1188.76 590.76
  C 1208.46 576.28 1185.72 546.49 1175.79 533.43
  A 0.77 0.77 0.0 0 0 1174.78 533.24
  L 1077.82 592.79
  Q 1076.63 593.52 1077.26 594.77
  Z
  M 277.95 568.96
  C 275.84 551.49 251.33 535.04 235.28 545.37
  Q 231.85 547.58 227.36 554.14
  Q 218.43 567.18 210.26 580.65
  A 0.81 0.80 -59.1 0 0 210.53 581.75
  L 308.41 641.34
  Q 308.93 641.66 309.30 641.18
  C 315.35 633.30 336.11 604.51 329.22 594.29
  C 319.87 580.41 296.57 560.35 278.67 569.34
  A 0.50 0.50 0.0 0 1 277.95 568.96
  Z
  M 430.30 1174.07
  C 429.19 1178.15 433.08 1180.29 436.75 1180.26
  C 610.42 1179.06 784.10 1178.07 957.77 1176.56
  Q 958.33 1176.56 958.47 1177.10
  C 959.16 1179.86 959.40 1192.85 965.07 1188.72
  Q 973.92 1182.28 982.60 1175.62
  C 986.89 1172.33 984.51 1169.41 981.11 1167.02
  Q 973.00 1161.32 964.91 1155.59
  C 958.87 1151.31 959.18 1164.48 958.83 1167.10
  Q 958.76 1167.62 958.23 1167.65
  Q 953.12 1167.95 948.00 1167.99
  Q 694.24 1169.96 440.49 1172.02
  C 438.11 1172.04 430.98 1171.59 430.30 1174.07
  Z"
      />
      <path
        fill="#fff"
        d="
  M 719.46 392.23
  Q 719.66 393.45 719.89 392.23
  L 739.80 288.56
  A 1.23 1.23 0.0 0 1 741.12 287.57
  Q 758.89 289.15 776.66 290.83
  C 778.14 290.97 779.75 290.63 779.75 292.75
  Q 779.76 349.73 779.75 406.78
  Q 779.75 408.31 778.23 408.18
  L 758.69 406.58
  Q 758.05 406.53 758.03 405.89
  L 757.61 388.22
  A 0.72 0.71 -88.2 0 0 756.97 387.53
  L 744.93 386.41
  A 1.12 1.11 7.6 0 0 743.73 387.32
  L 740.66 404.27
  A 1.21 1.21 0.0 0 1 739.25 405.24
  Q 719.66 401.49 699.71 402.36
  A 0.96 0.95 86.0 0 1 698.71 401.48
  L 692.52 322.57
  A 0.19 0.19 0.0 0 0 692.14 322.57
  L 685.28 402.86
  A 1.02 1.00 -0.0 0 1 684.35 403.78
  L 665.81 405.28
  A 1.69 1.69 0.0 0 1 664.04 404.00
  L 644.60 325.83
  A 0.27 0.27 0.0 0 0 644.07 325.91
  Q 647.28 364.12 650.01 402.75
  Q 650.16 404.92 649.22 406.17
  Q 648.88 406.63 648.31 406.67
  C 634.48 407.75 622.63 411.31 609.71 413.95
  A 0.75 0.74 74.2 0 1 608.86 413.47
  L 603.02 397.47
  A 1.09 1.08 -16.6 0 0 601.75 396.79
  L 589.85 399.56
  Q 589.19 399.71 589.31 400.38
  L 592.22 417.05
  A 1.34 1.34 0.0 0 1 591.22 418.58
  L 571.50 423.47
  A 1.10 1.10 0.0 0 1 570.16 422.57
  Q 561.95 367.03 554.02 311.54
  C 553.66 309.06 552.94 307.71 556.00 306.96
  Q 573.27 302.70 590.85 298.44
  Q 591.94 298.18 592.31 299.23
  L 627.59 400.34
  A 0.49 0.49 0.0 0 0 628.54 400.14
  Q 624.71 348.54 620.90 297.32
  Q 620.65 294.07 620.77 292.10
  Q 620.81 291.44 621.47 291.39
  L 654.72 289.13
  A 1.47 1.46 81.8 0 1 656.25 290.28
  L 670.40 356.24
  A 0.31 0.30 -49.5 0 0 671.00 356.19
  L 675.46 288.69
  Q 675.50 288.04 676.11 287.85
  Q 677.10 287.52 678.68 287.38
  Q 694.71 285.95 710.01 284.72
  Q 711.29 284.61 711.39 285.90
  Q 715.09 335.66 718.64 384.76
  Q 718.95 389.11 719.46 392.23
  Z
  M 748.19 367.44
  L 756.21 368.54
  A 0.90 0.90 0.0 0 0 757.23 367.67
  Q 757.76 339.13 758.05 311.75
  Q 758.06 311.07 757.47 310.66
  A 0.41 0.41 0.0 0 0 756.83 310.93
  L 747.53 366.53
  A 0.78 0.78 0.0 0 0 748.19 367.44
  Z
  M 586.98 380.89
  L 595.14 379.04
  A 1.49 1.48 74.4 0 0 596.22 377.12
  L 578.08 323.21
  A 0.58 0.58 0.0 0 0 577.18 322.94
  Q 576.61 323.39 576.72 324.01
  Q 581.54 352.29 586.47 380.54
  A 0.42 0.42 0.0 0 0 586.98 380.89
  Z"
      />
      <path
        fill="#fff"
        d="
  M 879.31 385.17
  A 0.29 0.28 -27.2 0 0 879.85 385.34
  L 906.55 323.05
  A 1.34 1.33 -69.0 0 1 908.20 322.31
  L 927.89 328.80
  A 0.94 0.93 21.5 0 1 928.45 330.08
  L 880.95 435.01
  Q 880.41 436.20 879.17 435.80
  L 854.93 427.87
  A 1.37 1.36 -75.0 0 1 854.02 426.28
  L 864.80 375.74
  A 0.31 0.30 -27.4 0 0 864.22 375.56
  L 843.25 423.30
  A 0.84 0.84 0.0 0 1 842.21 423.76
  L 816.66 415.25
  Q 816.03 415.04 816.05 414.37
  Q 816.08 413.10 816.48 411.24
  Q 827.89 357.58 839.38 303.92
  Q 839.77 302.10 840.33 301.16
  Q 840.92 300.19 842.00 300.55
  L 860.44 306.69
  Q 861.92 307.18 861.57 308.69
  L 846.26 375.02
  A 0.32 0.32 0.0 0 0 846.87 375.22
  L 873.99 312.15
  A 1.05 1.04 -69.3 0 1 875.28 311.56
  L 894.19 317.77
  A 0.94 0.94 0.0 0 1 894.81 318.88
  L 879.31 385.17
  Z"
      />
      <path
        fill="#000000"
        d="
  M 748.19 367.44
  A 0.78 0.78 0.0 0 1 747.53 366.53
  L 756.83 310.93
  A 0.41 0.41 0.0 0 1 757.47 310.66
  Q 758.06 311.07 758.05 311.75
  Q 757.76 339.13 757.23 367.67
  A 0.90 0.90 0.0 0 1 756.21 368.54
  L 748.19 367.44
  Z"
      />
      <path
        fill="#fff"
        d="
  M 502.55 379.46
  C 487.64 371.54 480.18 351.42 487.81 336.46
  C 493.95 324.44 510.67 318.89 523.29 324.43
  C 532.06 328.27 538.21 336.40 540.34 345.76
  A 1.07 1.07 0.0 0 1 539.68 346.99
  L 520.26 354.55
  A 0.92 0.91 -23.1 0 1 519.11 354.09
  L 515.16 345.52
  A 1.94 1.94 0.0 0 0 512.94 344.45
  L 507.87 345.71
  Q 507.37 345.83 507.25 346.34
  C 504.82 356.47 530.33 366.59 537.54 369.99
  C 552.15 376.89 559.28 385.72 562.73 401.54
  C 566.45 418.62 562.38 428.78 545.66 435.06
  C 522.07 443.91 509.36 424.60 504.14 405.08
  Q 503.60 403.07 505.49 402.36
  Q 514.49 398.97 523.69 395.82
  A 0.95 0.95 0.0 0 1 524.87 396.33
  Q 528.42 404.32 531.88 412.67
  C 533.23 415.92 539.71 415.55 540.87 412.05
  C 542.31 407.68 536.96 398.40 534.35 395.88
  C 527.00 388.75 511.27 384.09 502.55 379.46
  Z"
      />
      <path
        fill="#000000"
        d="
  M 586.98 380.89
  A 0.42 0.42 0.0 0 1 586.47 380.54
  Q 581.54 352.29 576.72 324.01
  Q 576.61 323.39 577.18 322.94
  A 0.58 0.58 0.0 0 1 578.08 323.21
  L 596.22 377.12
  A 1.49 1.48 74.4 0 1 595.14 379.04
  L 586.98 380.89
  Z"
      />
      <path
        fill="#fff"
        d="
  M 512.41 426.88
  L 520.18 442.13
  A 1.39 1.39 0.0 0 1 519.58 443.99
  L 479.98 464.73
  A 1.39 1.39 0.0 0 1 478.10 464.14
  L 425.11 363.14
  A 1.39 1.39 0.0 0 1 425.69 361.27
  L 444.06 351.45
  A 1.39 1.39 0.0 0 1 445.95 352.03
  L 489.68 435.58
  A 1.39 1.39 0.0 0 0 491.55 436.17
  L 510.53 426.28
  A 1.39 1.39 0.0 0 1 512.41 426.88
  Z"
      />
      <path
        fill="#fff"
        d="
  M 973.85 404.57
  L 990.90 414.75
  A 0.97 0.97 0.0 0 1 991.24 416.07
  L 981.03 433.65
  A 0.97 0.97 0.0 0 1 979.70 434.00
  L 962.45 423.72
  A 0.97 0.97 0.0 0 0 961.11 424.07
  L 948.90 445.25
  A 0.97 0.97 0.0 0 0 949.24 446.56
  L 968.47 458.22
  A 0.97 0.97 0.0 0 1 968.80 459.55
  L 957.97 477.52
  A 0.97 0.97 0.0 0 1 956.64 477.85
  L 916.66 454.19
  A 0.97 0.97 0.0 0 1 916.32 452.87
  L 974.66 353.86
  A 0.97 0.97 0.0 0 1 975.99 353.51
  L 1014.70 376.36
  A 0.97 0.97 0.0 0 1 1015.04 377.68
  L 1004.52 395.56
  A 0.97 0.97 0.0 0 1 1003.19 395.90
  L 985.08 385.17
  A 0.97 0.97 0.0 0 0 983.75 385.52
  L 973.51 403.25
  A 0.97 0.97 0.0 0 0 973.85 404.57
  Z"
      />
      <path
        fill="#fff"
        d="
  M 465.31 448.18
  L 476.73 465.37
  A 1.13 1.13 0.0 0 1 476.42 466.94
  L 438.19 492.54
  A 1.13 1.13 0.0 0 1 436.62 492.23
  L 372.74 397.05
  A 1.13 1.13 0.0 0 1 373.05 395.48
  L 409.89 370.65
  A 1.13 1.13 0.0 0 1 411.46 370.96
  L 422.80 387.97
  A 1.13 1.13 0.0 0 1 422.48 389.54
  L 405.36 401.01
  A 1.13 1.13 0.0 0 0 405.05 402.58
  L 416.36 419.37
  A 1.13 1.13 0.0 0 0 417.92 419.68
  L 434.37 408.79
  A 1.13 1.13 0.0 0 1 435.93 409.10
  L 447.07 425.63
  A 1.13 1.13 0.0 0 1 446.76 427.20
  L 430.59 438.05
  A 1.13 1.13 0.0 0 0 430.28 439.61
  L 443.63 459.85
  A 1.13 1.13 0.0 0 0 445.19 460.17
  L 463.75 447.86
  A 1.13 1.13 0.0 0 1 465.31 448.18
  Z"
      />
      <path
        fill="#fff"
        d="
  M 1005.97 496.23
  A 0.22 0.22 0.0 0 0 1006.30 496.50
  L 1082.82 430.03
  Q 1083.83 429.15 1084.82 430.06
  Q 1097.74 441.95 1111.08 454.68
  Q 1112.89 456.41 1111.48 458.19
  Q 1077.73 501.09 1043.98 543.99
  Q 1043.17 545.02 1043.03 545.61
  A 0.41 0.40 77.2 0 0 1043.68 546.02
  Q 1086.21 511.57 1127.95 477.70
  Q 1129.31 476.59 1130.56 476.21
  Q 1131.11 476.04 1131.47 476.49
  Q 1142.20 489.71 1152.46 503.29
  C 1160.91 514.48 1159.50 522.89 1149.89 532.70
  C 1141.74 541.01 1130.18 551.00 1118.28 547.26
  Q 1117.68 547.08 1117.60 547.70
  C 1116.46 556.21 1115.19 559.84 1108.31 565.28
  Q 1092.27 577.98 1076.04 591.07
  Q 1074.81 592.06 1073.81 590.84
  L 1060.87 574.95
  Q 1060.53 574.54 1060.94 574.21
  Q 1080.07 558.26 1094.19 546.95
  C 1097.98 543.91 1102.38 538.82 1096.27 534.86
  Q 1095.73 534.51 1095.23 534.92
  L 1055.85 566.83
  A 1.46 1.46 0.0 0 1 1053.75 566.55
  Q 1040.96 548.75 1024.84 533.90
  A 0.53 0.52 -50.4 0 1 1024.78 533.19
  L 1035.21 519.56
  Q 1035.85 518.73 1035.11 517.98
  L 1026.54 509.42
  Q 1026.14 509.01 1025.70 509.38
  Q 1017.90 515.93 1013.93 519.89
  C 1012.40 521.41 1011.54 521.10 1010.02 519.73
  Q 986.59 498.66 960.29 480.79
  A 1.70 1.69 -54.7 0 1 959.88 478.37
  L 1028.24 386.36
  Q 1028.65 385.81 1029.20 386.21
  L 1046.76 398.92
  Q 1047.31 399.32 1047.02 399.94
  Q 1046.42 401.22 1045.16 402.91
  Q 1017.67 439.92 990.64 476.42
  Q 989.92 477.40 990.89 478.12
  L 1007.43 490.47
  A 1.79 1.79 0.0 0 1 1007.91 492.79
  L 1005.97 496.23
  Z
  M 1041.07 496.70
  C 1042.66 499.23 1045.20 501.21 1047.36 503.17
  Q 1047.85 503.61 1048.26 503.10
  L 1084.90 456.84
  A 0.44 0.44 0.0 0 0 1084.26 456.25
  L 1041.19 495.77
  Q 1040.75 496.18 1041.07 496.70
  Z
  M 1115.94 525.81
  C 1121.47 528.73 1130.32 519.79 1133.46 515.81
  Q 1133.86 515.30 1133.53 514.76
  L 1129.46 508.10
  Q 1129.05 507.44 1128.45 507.93
  L 1114.04 519.89
  Q 1113.60 520.25 1113.56 520.81
  Q 1113.27 524.40 1115.94 525.81
  Z"
      />
      <path
        fill="#fff"
        d="
  M 348.85 498.92
  L 386.47 537.54
  Q 386.89 537.98 386.47 538.42
  C 371.26 554.44 354.64 574.84 343.23 589.22
  Q 341.89 590.92 340.68 591.88
  Q 340.16 592.29 339.64 591.88
  L 249.89 520.88
  A 1.05 1.05 0.0 0 1 249.71 519.40
  Q 262.58 502.97 275.78 486.29
  Q 276.98 484.77 278.00 483.90
  Q 278.46 483.51 278.93 483.89
  L 295.17 497.13
  A 0.66 0.66 0.0 0 1 295.27 498.05
  L 282.07 514.86
  A 0.71 0.71 0.0 0 0 282.19 515.86
  L 298.12 528.52
  Q 299.27 529.43 300.18 528.28
  L 311.96 513.49
  Q 312.98 512.20 314.26 513.22
  L 329.37 525.19
  A 1.20 1.20 0.0 0 1 329.57 526.88
  L 317.37 542.40
  A 0.98 0.98 0.0 0 0 317.52 543.77
  L 336.35 558.80
  A 1.48 1.48 0.0 0 0 338.43 558.56
  L 351.71 541.84
  A 1.64 1.63 -50.7 0 1 354.04 541.60
  Q 361.82 548.14 369.94 554.20
  A 0.32 0.31 -33.3 0 0 370.21 554.25
  Q 370.78 554.10 370.22 553.53
  Q 329.57 512.31 289.27 471.31
  A 0.93 0.93 0.0 0 1 289.28 469.99
  L 305.20 454.49
  A 1.08 1.08 0.0 0 1 306.55 454.38
  L 349.57 483.67
  A 0.20 0.20 0.0 0 0 349.83 483.36
  L 314.60 447.29
  Q 313.61 446.27 314.62 445.26
  L 328.98 430.90
  A 0.67 0.66 -44.7 0 1 329.93 430.90
  L 411.00 512.90
  Q 411.49 513.40 411.00 513.89
  L 395.92 528.93
  A 1.17 1.17 0.0 0 1 394.45 529.07
  L 349.08 498.65
  A 0.18 0.18 0.0 0 0 348.85 498.92
  Z"
      />
      <path
        fill="#fff"
        d="
  M 430.95 1113.78
  A 1.77 1.75 -85.6 0 1 429.59 1112.18
  C 428.98 1102.77 429.74 1093.57 429.54 1084.20
  Q 429.26 1071.46 429.26 1069.17
  Q 429.24 900.33 429.25 731.50
  C 429.26 719.46 429.65 702.59 431.23 689.56
  C 443.07 592.05 506.03 509.63 595.31 469.55
  C 600.67 467.14 607.95 466.77 614.02 464.07
  C 625.67 458.87 635.65 457.40 648.18 454.41
  C 660.98 451.36 674.85 450.82 686.97 449.55
  C 697.66 448.43 708.36 447.57 719.07 448.83
  C 731.26 450.26 741.27 450.69 752.11 452.65
  Q 758.81 453.87 765.53 454.88
  C 775.38 456.37 784.90 459.99 794.68 462.14
  C 800.63 463.45 805.48 466.80 810.56 468.68
  C 814.39 470.10 818.33 471.55 821.99 473.34
  Q 922.46 522.31 962.30 625.91
  C 973.53 655.12 979.98 684.98 980.12 716.25
  Q 981.04 912.97 981.20 1109.69
  Q 981.20 1111.68 980.60 1112.95
  Q 980.35 1113.48 979.77 1113.48
  Q 707.13 1113.95 434.50 1114.16
  Q 432.61 1114.16 430.95 1113.78
  Z
  M 678.40 517.53
  C 697.43 524.22 703.26 548.68 700.19 565.97
  C 697.81 579.41 678.80 600.96 690.73 613.40
  A 0.42 0.42 0.0 0 0 691.42 613.27
  C 710.49 566.58 729.51 519.91 748.79 473.35
  C 750.11 470.15 750.36 466.14 752.82 462.64
  A 0.77 0.77 0.0 0 0 752.32 461.44
  C 742.76 459.76 733.24 459.62 723.70 458.28
  C 705.50 455.71 689.16 458.26 671.06 459.66
  C 658.62 460.62 647.08 463.97 635.50 466.17
  C 631.25 466.98 627.21 469.00 622.80 469.83
  A 1.17 1.17 0.0 0 0 621.90 471.30
  L 651.56 575.57
  A 1.25 1.24 -26.7 0 0 653.52 576.21
  Q 661.23 570.32 666.97 561.98
  C 674.02 551.73 673.21 536.42 660.68 531.33
  Q 655.85 529.37 649.87 529.10
  C 646.72 528.96 644.29 525.67 647.43 523.45
  C 656.19 517.30 668.18 513.94 678.40 517.53
  Z
  M 766.44 554.31
  C 776.54 557.49 783.77 563.19 791.31 570.95
  Q 792.14 571.80 793.02 571.00
  L 860.63 509.11
  Q 861.97 507.89 860.49 506.82
  Q 839.51 491.75 816.98 481.38
  C 808.98 477.69 797.43 473.39 787.77 469.06
  Q 787.37 468.88 786.93 468.97
  L 784.59 469.48
  Q 784.11 469.58 783.66 469.37
  Q 773.36 464.60 762.12 463.02
  Q 761.67 462.96 761.53 463.39
  Q 759.61 469.39 756.23 477.74
  Q 729.55 543.75 702.87 610.02
  A 0.72 0.72 0.0 0 0 703.54 611.00
  L 704.08 611.00
  Q 704.60 611.00 704.98 610.65
  C 718.41 598.37 732.45 596.72 750.19 596.67
  Q 757.59 596.64 763.12 592.54
  C 774.84 583.86 770.96 570.19 763.57 560.27
  Q 763.27 559.87 763.26 559.37
  C 763.22 557.44 762.92 553.21 766.44 554.31
  Z
  M 526.45 530.69
  Q 541.24 541.62 556.18 552.32
  C 559.15 554.45 560.50 556.11 564.34 555.97
  C 587.27 555.17 607.61 568.80 615.40 590.32
  C 616.73 593.97 617.77 599.13 618.73 602.52
  C 622.05 614.24 631.85 619.35 643.60 620.12
  Q 644.14 620.15 644.15 619.61
  Q 644.40 607.56 644.74 595.50
  C 644.88 590.34 644.65 584.88 643.44 580.56
  Q 628.52 527.68 613.54 474.81
  Q 613.41 474.34 612.92 474.36
  Q 608.57 474.49 606.92 475.15
  Q 560.83 493.76 524.11 527.26
  Q 523.69 527.65 523.88 528.19
  C 524.29 529.38 525.55 530.03 526.45 530.69
  Z
  M 937.75 593.02
  C 920.56 563.08 897.12 535.15 869.88 513.81
  A 0.98 0.97 -47.2 0 0 868.62 513.86
  L 797.30 579.08
  A 1.83 1.81 -19.1 0 0 796.72 580.26
  C 793.79 609.82 775.11 625.64 747.92 632.89
  C 735.82 636.11 730.69 645.87 730.37 657.85
  A 0.69 0.69 0.0 0 0 731.11 658.56
  Q 742.09 657.71 752.44 657.46
  C 760.43 657.26 769.23 654.02 777.68 651.21
  Q 857.05 624.86 936.28 598.08
  C 938.84 597.22 939.00 595.20 937.75 593.02
  Z
  M 658.19 619.60
  C 664.97 618.09 673.46 618.67 680.99 620.03
  A 0.67 0.67 0.0 0 0 681.72 619.10
  C 678.48 611.79 676.22 605.50 678.07 597.42
  C 679.52 591.10 685.26 582.42 688.03 575.83
  Q 698.80 550.13 681.07 529.47
  Q 678.21 526.15 673.91 527.45
  A 0.75 0.74 62.9 0 0 673.54 528.62
  C 683.08 541.01 684.37 553.44 674.46 566.20
  C 661.94 582.33 649.08 594.44 654.18 617.23
  C 654.77 619.89 655.58 620.18 658.19 619.60
  Z
  M 476.25 587.72
  Q 534.19 616.45 591.97 644.42
  C 592.26 644.56 592.77 644.51 593.05 644.50
  A 0.67 0.67 0.0 0 0 593.60 643.50
  Q 586.82 631.36 583.74 618.07
  C 581.01 606.26 585.87 589.18 573.01 582.52
  Q 557.95 574.72 546.91 587.29
  Q 546.59 587.65 546.11 587.72
  Q 543.47 588.07 542.18 586.30
  C 538.60 581.43 550.73 566.36 553.82 562.66
  A 0.79 0.78 -52.2 0 0 553.68 561.52
  Q 536.42 548.88 519.16 536.40
  C 517.59 535.26 516.77 534.09 514.94 535.93
  Q 492.14 558.92 475.92 586.61
  A 0.79 0.79 0.0 0 0 476.25 587.72
  Z
  M 562.62 570.14
  C 569.47 571.39 574.96 572.04 580.54 576.55
  C 586.88 581.68 589.94 590.66 590.97 598.75
  C 593.37 617.75 594.02 634.74 612.09 646.07
  Q 612.54 646.35 613.06 646.29
  C 616.39 645.93 628.11 632.77 631.14 629.72
  A 1.39 1.39 0.0 0 0 630.75 627.49
  C 620.71 622.64 615.31 619.20 612.00 607.99
  C 609.02 597.89 607.33 590.69 601.44 583.36
  C 594.04 574.16 574.51 557.44 562.09 568.19
  A 1.12 1.12 0.0 0 0 562.62 570.14
  Z
  M 706.47 629.54
  C 711.18 635.30 716.48 640.88 721.93 645.04
  Q 723.37 646.14 723.87 644.39
  C 730.11 622.76 747.35 625.84 763.45 617.92
  Q 785.61 607.01 785.10 580.47
  C 785.09 579.75 784.65 578.54 784.46 577.78
  Q 784.33 577.26 783.84 577.03
  C 781.69 576.04 780.29 577.22 779.90 579.41
  C 777.51 593.09 769.85 602.31 755.98 605.02
  C 749.39 606.30 738.93 604.46 731.20 606.36
  Q 715.12 610.34 705.92 624.65
  C 704.66 626.61 705.11 627.88 706.47 629.54
  Z
  M 439.97 748.39
  Q 441.66 748.71 443.25 748.27
  Q 514.07 728.51 585.95 708.32
  A 1.03 1.03 0.0 0 0 585.84 706.32
  C 576.34 704.75 569.79 700.65 561.69 694.08
  C 554.26 688.05 541.86 676.11 531.35 678.04
  C 524.11 679.37 518.30 685.41 516.18 692.25
  C 515.18 695.46 515.42 700.61 512.82 704.61
  A 1.12 1.11 40.6 0 1 511.06 704.74
  C 494.21 686.02 502.43 661.35 524.95 652.95
  Q 546.69 644.84 566.74 654.72
  C 578.13 660.33 587.41 670.81 600.55 660.54
  Q 601.01 660.18 600.82 659.63
  Q 600.38 658.34 598.85 657.60
  Q 536.11 627.18 473.28 596.93
  C 471.97 596.30 469.66 596.19 468.99 597.54
  Q 434.10 667.82 438.12 746.26
  A 2.29 2.29 0.0 0 0 439.97 748.39
  Z
  M 772.02 663.95
  C 778.61 673.40 789.02 683.07 800.42 685.42
  C 808.80 687.15 816.27 680.88 819.73 673.96
  C 821.54 670.35 821.74 665.73 822.49 661.53
  A 2.40 2.39 86.6 0 1 824.13 659.67
  Q 826.51 658.93 827.88 661.22
  Q 837.89 677.88 831.92 696.59
  Q 831.12 699.13 833.51 699.44
  Q 900.37 708.14 967.27 716.58
  Q 968.66 716.76 969.49 716.77
  A 1.77 1.77 0.0 0 0 971.30 714.93
  C 969.79 677.59 962.32 639.11 944.51 605.96
  A 1.36 1.35 66.7 0 0 942.89 605.31
  L 772.72 661.84
  Q 770.96 662.43 772.02 663.95
  Z
  M 722.46 682.18
  A 53.95 53.95 0.0 0 0 668.51 628.23
  A 53.95 53.95 0.0 0 0 614.56 682.18
  A 53.95 53.95 0.0 0 0 668.51 736.13
  A 53.95 53.95 0.0 0 0 722.46 682.18
  Z
  M 513.88 678.99
  Q 514.21 679.18 514.50 678.92
  C 523.43 670.56 532.41 665.70 544.45 671.38
  C 564.91 681.03 574.93 700.33 600.85 697.87
  C 603.27 697.64 604.63 696.74 604.76 694.25
  Q 605.44 682.13 605.81 670.02
  A 0.81 0.81 0.0 0 0 604.53 669.33
  C 594.41 676.41 585.72 675.13 574.98 669.72
  C 567.51 665.96 558.57 659.84 550.76 659.73
  C 536.57 659.52 520.46 659.42 513.29 674.41
  C 512.31 676.44 511.53 677.65 513.88 678.99
  Z
  M 733.47 694.36
  C 752.14 683.22 762.71 696.91 778.79 702.63
  C 795.82 708.70 814.97 704.58 824.79 688.38
  Q 825.02 687.99 824.70 687.69
  C 822.41 685.49 812.09 692.92 811.17 693.23
  Q 795.98 698.36 784.55 688.95
  C 769.27 676.37 757.98 663.42 735.77 666.92
  Q 734.39 667.13 733.22 667.87
  Q 732.75 668.16 732.75 668.71
  L 732.75 693.95
  A 0.48 0.48 0.0 0 0 733.47 694.36
  Z
  M 730.31 710.65
  Q 800.68 755.42 870.92 799.58
  Q 871.89 800.19 872.96 800.42
  A 1.89 1.89 0.0 0 0 875.26 798.57
  Q 875.22 781.19 875.29 763.81
  Q 875.29 762.70 875.70 761.36
  Q 875.85 760.87 876.28 760.59
  C 900.33 745.11 925.18 737.14 953.00 733.11
  C 958.95 732.25 964.18 730.95 969.74 729.46
  Q 971.03 729.12 971.02 727.71
  A 0.92 0.91 3.7 0 0 970.23 726.82
  Q 901.13 717.29 831.59 708.86
  C 820.81 707.55 810.76 711.88 802.49 713.48
  C 787.38 716.40 776.65 711.81 763.39 705.32
  C 751.11 699.31 740.63 697.47 730.05 708.54
  A 1.38 1.38 0.0 0 0 730.31 710.65
  Z
  M 437.72 759.62
  Q 437.26 761.74 437.26 763.00
  Q 437.21 790.16 437.37 896.06
  Q 437.38 898.27 437.59 899.29
  Q 438.01 901.36 439.56 899.93
  Q 493.74 850.29 547.19 801.18
  Q 548.74 799.75 549.68 798.52
  Q 550.03 798.05 549.68 797.58
  C 547.37 794.51 544.93 791.24 543.66 787.76
  C 535.72 766.15 559.65 738.81 580.23 734.18
  C 591.57 731.63 604.70 727.83 605.11 713.87
  A 1.29 1.28 -7.1 0 0 603.47 712.60
  L 438.41 758.89
  Q 437.84 759.05 437.72 759.62
  Z
  M 614.58 718.55
  C 610.56 726.13 608.17 733.14 599.43 736.91
  C 590.22 740.87 580.17 742.21 571.69 747.52
  C 557.28 756.57 548.35 771.77 553.75 789.03
  A 0.56 0.55 46.5 0 0 554.80 789.06
  C 556.71 783.85 558.45 777.53 561.02 773.26
  C 577.78 745.46 615.48 771.90 632.05 736.94
  A 1.38 1.37 -54.1 0 0 631.81 735.41
  L 615.88 718.37
  A 0.81 0.80 -52.7 0 0 614.58 718.55
  Z
  M 705.43 737.01
  C 721.12 742.52 723.16 748.51 727.68 763.57
  C 732.73 780.40 753.15 807.58 774.24 797.22
  C 774.91 796.90 775.39 796.21 775.56 795.54
  A 1.09 1.09 0.0 0 0 774.63 794.19
  Q 753.12 791.79 746.92 773.28
  C 744.69 766.64 744.68 757.43 744.08 749.73
  Q 742.49 729.43 725.33 718.86
  Q 722.74 717.27 720.55 719.56
  Q 712.66 727.79 705.17 735.96
  A 0.65 0.65 0.0 0 0 705.43 737.01
  Z
  M 755.57 767.17
  C 758.59 780.18 770.29 790.66 783.66 782.85
  C 785.99 781.49 789.88 776.15 791.93 775.88
  C 795.92 775.36 795.52 782.34 794.58 784.82
  Q 793.06 788.79 787.94 796.42
  C 776.55 813.35 758.71 811.50 744.10 800.66
  Q 724.44 786.06 718.02 762.46
  C 715.78 754.25 712.33 746.84 702.74 746.28
  C 700.51 746.15 700.21 747.76 700.78 749.53
  Q 722.47 817.28 744.32 884.98
  C 745.37 888.24 747.20 887.67 749.92 887.16
  Q 776.23 882.19 802.50 877.00
  Q 804.90 876.52 806.39 875.99
  Q 806.92 875.80 807.11 875.27
  Q 808.66 871.13 808.15 866.06
  Q 806.17 846.80 808.33 827.52
  A 1.22 1.22 0.0 0 1 809.19 826.49
  Q 836.87 818.08 864.53 809.85
  Q 866.21 809.35 866.69 808.57
  Q 867.46 807.31 866.21 806.54
  L 754.57 736.89
  A 0.89 0.89 0.0 0 0 753.22 737.58
  Q 752.18 752.51 755.57 767.17
  Z
  M 921.16 749.56
  Q 914.50 748.63 910.16 753.78
  A 0.59 0.59 0.0 0 0 910.59 754.75
  Q 916.70 754.94 922.50 752.96
  Q 946.12 750.25 969.75 747.66
  C 975.62 747.01 973.51 739.29 967.05 740.21
  Q 943.83 743.52 921.16 749.56
  Z
  M 566.98 796.52
  C 570.82 800.99 575.13 802.89 572.20 809.72
  A 1.02 1.02 0.0 0 1 570.79 810.23
  L 558.69 804.02
  Q 558.16 803.75 557.65 804.04
  Q 556.38 804.77 554.76 806.26
  Q 497.41 858.94 440.07 911.63
  C 438.04 913.50 437.21 915.10 437.21 917.75
  Q 437.24 1003.83 437.26 1090.15
  A 1.43 1.43 0.0 0 0 439.22 1091.48
  Q 440.67 1090.89 441.87 1089.06
  Q 544.21 932.95 645.44 776.12
  C 653.43 763.74 652.65 752.57 641.23 742.68
  A 0.69 0.68 -54.2 0 0 640.19 742.85
  Q 631.72 757.24 616.76 763.81
  C 608.63 767.38 596.46 765.50 590.20 771.69
  Q 578.43 783.31 567.00 795.39
  A 0.85 0.84 46.3 0 0 566.98 796.52
  Z
  M 651.24 828.57
  C 653.69 833.30 658.61 837.62 664.27 838.43
  A 0.51 0.51 0.0 0 0 664.73 837.59
  C 645.44 815.50 659.62 802.20 673.83 784.08
  C 682.95 772.43 686.59 761.28 682.27 746.33
  Q 682.11 745.75 681.50 745.75
  L 656.81 745.75
  A 0.56 0.55 78.9 0 0 656.30 746.52
  C 660.08 755.90 662.15 763.35 657.60 773.09
  C 654.26 780.26 649.44 788.26 647.53 794.99
  Q 642.68 812.07 651.24 828.57
  Z
  M 885.33 804.29
  A 0.92 0.90 -14.2 0 0 886.25 804.83
  L 970.03 796.12
  A 1.17 1.16 87.3 0 0 971.08 794.96
  L 970.80 758.86
  A 1.74 1.74 0.0 0 0 968.85 757.14
  L 885.53 767.26
  Q 883.95 767.45 883.97 769.03
  Q 884.16 784.09 884.88 799.98
  C 884.94 801.15 884.82 803.10 885.33 804.29
  Z
  M 668.63 825.89
  C 672.43 832.60 679.72 835.90 687.26 834.57
  Q 687.78 834.48 688.18 834.81
  C 691.83 837.81 689.87 840.79 686.67 842.75
  C 674.89 849.97 663.27 848.83 650.86 843.38
  A 0.88 0.88 0.0 0 0 649.67 843.92
  Q 614.68 954.81 579.80 1065.69
  C 579.69 1066.02 579.74 1066.68 579.75 1066.97
  A 1.08 1.07 -7.7 0 0 581.08 1067.98
  L 608.68 1061.39
  Q 609.23 1061.26 609.28 1060.69
  Q 609.44 1059.00 609.31 1056.00
  Q 608.68 1040.35 608.18 1003.75
  C 608.15 1002.07 608.75 997.72 611.23 996.94
  Q 651.63 984.27 692.03 971.60
  Q 696.05 970.34 699.79 968.77
  A 1.56 1.56 0.0 0 0 700.75 967.33
  Q 700.65 934.38 701.06 901.50
  Q 701.12 896.36 706.82 895.34
  Q 720.21 892.92 734.30 890.26
  Q 735.89 889.96 735.69 888.36
  Q 735.55 887.23 735.00 885.50
  Q 715.60 824.59 696.11 763.71
  C 695.72 762.48 694.91 761.94 693.67 761.98
  A 0.90 0.89 1.4 0 0 692.81 762.79
  Q 691.49 777.69 681.73 788.99
  C 672.36 799.85 659.38 809.58 668.63 825.89
  Z
  M 577.61 769.08
  C 574.17 770.68 570.52 773.84 569.16 777.53
  Q 568.96 778.09 569.40 778.48
  C 570.92 779.83 577.01 771.10 578.10 769.71
  A 0.41 0.41 0.0 0 0 577.61 769.08
  Z
  M 860.73 822.15
  C 864.53 823.75 877.76 821.37 880.53 821.18
  Q 922.82 818.24 965.15 815.79
  C 970.08 815.50 973.64 813.73 972.23 808.15
  C 971.46 805.08 966.28 806.41 964.01 806.62
  Q 927.70 809.97 891.40 813.50
  C 879.35 814.68 870.86 816.53 860.71 821.10
  A 0.57 0.57 0.0 0 0 860.73 822.15
  Z
  M 445.63 1100.61
  A 1.68 1.67 -22.9 0 0 447.45 1101.34
  Q 505.62 1086.94 563.70 1072.55
  C 568.65 1071.33 568.73 1071.24 570.26 1066.41
  Q 606.13 952.78 641.99 839.15
  C 642.96 836.09 642.30 835.24 641.33 832.43
  Q 637.54 821.49 636.20 809.60
  A 0.40 0.40 0.0 0 0 635.52 809.36
  C 634.91 809.97 634.14 810.64 633.65 811.37
  Q 539.79 954.66 445.95 1097.96
  Q 444.94 1099.50 445.63 1100.61
  Z
  M 970.7184 828.3428
  A 3.57 3.57 0.0 0 0 966.9488 824.9842
  L 819.1742 833.5048
  A 3.57 3.57 0.0 0 0 815.8157 837.2744
  L 817.8016 871.7172
  A 3.57 3.57 0.0 0 0 821.5712 875.0758
  L 969.3458 866.5552
  A 3.57 3.57 0.0 0 0 972.7043 862.7856
  L 970.7184 828.3428
  Z
  M 780.42 895.65
  C 843.53 895.47 906.31 894.10 969.64 895.64
  Q 971.12 895.67 971.09 894.20
  L 970.74 876.75
  A 0.50 0.49 87.8 0 0 970.22 876.26
  Q 894.12 879.60 817.97 883.85
  C 796.75 885.03 775.84 890.07 755.72 896.83
  A 0.22 0.22 0.0 0 0 755.80 897.26
  C 764.00 896.60 772.24 895.68 780.42 895.65
  Z
  M 710.91 966.91
  Q 713.63 967.34 716.50 967.50
  Q 842.27 974.31 968.04 981.02
  C 969.61 981.10 971.50 981.06 971.50 979.26
  Q 971.51 943.60 971.50 907.87
  A 1.59 1.59 0.0 0 0 969.91 906.28
  L 711.68 905.43
  A 2.15 2.14 0.1 0 0 709.52 907.57
  L 709.50 965.26
  Q 709.50 966.69 710.91 966.91
  Z
  M 649.22 998.33
  Q 650.50 1000.10 651.50 1000.21
  C 682.68 1003.55 726.05 1006.83 772.40 1010.97
  Q 869.44 1019.64 966.51 1027.85
  Q 968.49 1028.01 969.95 1028.02
  A 1.55 1.55 0.0 0 0 971.50 1026.47
  L 971.50 992.26
  Q 971.50 990.49 969.74 990.50
  C 956.50 990.54 943.42 989.28 930.24 988.41
  C 913.71 987.33 896.37 986.81 879.43 985.86
  C 832.90 983.27 786.42 980.67 739.92 977.49
  Q 726.98 976.61 719.94 976.94
  C 696.47 978.06 673.14 985.05 651.75 994.50
  Q 650.77 994.94 649.14 995.99
  Q 648.75 996.25 648.28 996.25
  L 639.80 996.26
  A 0.56 0.55 -23.5 0 0 639.42 997.22
  Q 643.39 1000.89 648.27 998.12
  Q 648.84 997.80 649.22 998.33
  Z
  M 619.26 1060.43
  Q 621.09 1060.94 622.24 1061.09
  Q 780.68 1081.30 939.22 1100.72
  C 951.16 1102.18 960.85 1103.60 970.24 1103.17
  Q 970.78 1103.15 970.78 1102.60
  L 970.73 1038.20
  A 0.84 0.84 0.0 0 0 969.97 1037.36
  Q 803.24 1022.17 636.50 1008.00
  Q 631.10 1007.54 618.38 1008.81
  Q 617.85 1008.87 617.66 1009.36
  Q 617.19 1010.61 617.23 1012.07
  Q 617.97 1035.83 618.49 1059.44
  A 1.06 1.05 -82.9 0 0 619.26 1060.43
  Z
  M 858.96 1104.50
  Q 877.49 1107.43 896.36 1105.67
  A 0.71 0.71 0.0 0 0 896.80 1104.47
  C 895.28 1102.90 865.55 1102.06 861.75 1102.46
  C 862.14 1100.72 847.79 1098.42 846.50 1098.25
  Q 729.93 1083.37 613.14 1070.32
  C 611.18 1070.10 608.90 1070.37 606.96 1070.86
  Q 541.61 1087.27 475.98 1103.94
  A 0.65 0.64 -12.7 0 0 475.50 1104.69
  L 475.58 1105.09
  Q 475.69 1105.64 476.25 1105.65
  Q 563.84 1106.28 651.44 1106.29
  C 686.96 1106.29 722.15 1107.03 752.44 1107.10
  Q 803.97 1107.22 858.96 1104.50
  Z"
      />
      <path
        fill="#000000"
        d="
  M 1047.36 503.17
  C 1045.20 501.21 1042.66 499.23 1041.07 496.70
  Q 1040.75 496.18 1041.19 495.77
  L 1084.26 456.25
  A 0.44 0.44 0.0 0 1 1084.90 456.84
  L 1048.26 503.10
  Q 1047.85 503.61 1047.36 503.17
  Z"
      />
      <path
        fill="#000000"
        d="
  M 678.40 517.53
  C 668.18 513.94 656.19 517.30 647.43 523.45
  C 644.29 525.67 646.72 528.96 649.87 529.10
  Q 655.85 529.37 660.68 531.33
  C 673.21 536.42 674.02 551.73 666.97 561.98
  Q 661.23 570.32 653.52 576.21
  A 1.25 1.24 -26.7 0 1 651.56 575.57
  L 621.90 471.30
  A 1.17 1.17 0.0 0 1 622.80 469.83
  C 627.21 469.00 631.25 466.98 635.50 466.17
  C 647.08 463.97 658.62 460.62 671.06 459.66
  C 689.16 458.26 705.50 455.71 723.70 458.28
  C 733.24 459.62 742.76 459.76 752.32 461.44
  A 0.77 0.77 0.0 0 1 752.82 462.64
  C 750.36 466.14 750.11 470.15 748.79 473.35
  C 729.51 519.91 710.49 566.58 691.42 613.27
  A 0.42 0.42 0.0 0 1 690.73 613.40
  C 678.80 600.96 697.81 579.41 700.19 565.97
  C 703.26 548.68 697.43 524.22 678.40 517.53
  Z"
      />
      <path
        fill="#000000"
        d="
  M 766.44 554.31
  C 762.92 553.21 763.22 557.44 763.26 559.37
  Q 763.27 559.87 763.57 560.27
  C 770.96 570.19 774.84 583.86 763.12 592.54
  Q 757.59 596.64 750.19 596.67
  C 732.45 596.72 718.41 598.37 704.98 610.65
  Q 704.60 611.00 704.08 611.00
  L 703.54 611.00
  A 0.72 0.72 0.0 0 1 702.87 610.02
  Q 729.55 543.75 756.23 477.74
  Q 759.61 469.39 761.53 463.39
  Q 761.67 462.96 762.12 463.02
  Q 773.36 464.60 783.66 469.37
  Q 784.11 469.58 784.59 469.48
  L 786.93 468.97
  Q 787.37 468.88 787.77 469.06
  C 797.43 473.39 808.98 477.69 816.98 481.38
  Q 839.51 491.75 860.49 506.82
  Q 861.97 507.89 860.63 509.11
  L 793.02 571.00
  Q 792.14 571.80 791.31 570.95
  C 783.77 563.19 776.54 557.49 766.44 554.31
  Z"
      />
      <path
        fill="#000000"
        d="
  M 526.45 530.69
  C 525.55 530.03 524.29 529.38 523.88 528.19
  Q 523.69 527.65 524.11 527.26
  Q 560.83 493.76 606.92 475.15
  Q 608.57 474.49 612.92 474.36
  Q 613.41 474.34 613.54 474.81
  Q 628.52 527.68 643.44 580.56
  C 644.65 584.88 644.88 590.34 644.74 595.50
  Q 644.40 607.56 644.15 619.61
  Q 644.14 620.15 643.60 620.12
  C 631.85 619.35 622.05 614.24 618.73 602.52
  C 617.77 599.13 616.73 593.97 615.40 590.32
  C 607.61 568.80 587.27 555.17 564.34 555.97
  C 560.50 556.11 559.15 554.45 556.18 552.32
  Q 541.24 541.62 526.45 530.69
  Z"
      />
      <path
        fill="#000000"
        d="
  M 1115.94 525.81
  Q 1113.27 524.40 1113.56 520.81
  Q 1113.60 520.25 1114.04 519.89
  L 1128.45 507.93
  Q 1129.05 507.44 1129.46 508.10
  L 1133.53 514.76
  Q 1133.86 515.30 1133.46 515.81
  C 1130.32 519.79 1121.47 528.73 1115.94 525.81
  Z"
      />
      <path
        fill="#000000"
        d="
  M 869.88 513.81
  C 897.12 535.15 920.56 563.08 937.75 593.02
  C 939.00 595.20 938.84 597.22 936.28 598.08
  Q 857.05 624.86 777.68 651.21
  C 769.23 654.02 760.43 657.26 752.44 657.46
  Q 742.09 657.71 731.11 658.56
  A 0.69 0.69 0.0 0 1 730.37 657.85
  C 730.69 645.87 735.82 636.11 747.92 632.89
  C 775.11 625.64 793.79 609.82 796.72 580.26
  A 1.83 1.81 -19.1 0 1 797.30 579.08
  L 868.62 513.86
  A 0.98 0.97 -47.2 0 1 869.88 513.81
  Z"
      />
      <path
        fill="#fff"
        stroke="white"
        d="
  M 680.99 620.03
  C 673.46 618.67 664.97 618.09 658.19 619.60
  C 655.58 620.18 654.77 619.89 654.18 617.23
  C 649.08 594.44 661.94 582.33 674.46 566.20
  C 684.37 553.44 683.08 541.01 673.54 528.62
  A 0.75 0.74 62.9 0 1 673.91 527.45
  Q 678.21 526.15 681.07 529.47
  Q 698.80 550.13 688.03 575.83
  C 685.26 582.42 679.52 591.10 678.07 597.42
  C 676.22 605.50 678.48 611.79 681.72 619.10
  A 0.67 0.67 0.0 0 1 680.99 620.03
  Z"
      />
      <path
        fill="#fff"
        d="
  M 1117.10 632.97
  C 1097.21 635.75 1084.46 608.94 1077.26 594.77
  Q 1076.63 593.52 1077.82 592.79
  L 1174.78 533.24
  A 0.77 0.77 0.0 0 1 1175.79 533.43
  C 1185.72 546.49 1208.46 576.28 1188.76 590.76
  Q 1165.43 607.91 1133.64 625.80
  Q 1122.17 632.26 1117.10 632.97
  Z
  M 1112.47 610.12
  A 0.96 0.96 0.0 0 0 1113.64 610.27
  Q 1140.05 594.79 1165.93 578.26
  C 1171.90 574.45 1176.17 572.39 1171.91 564.93
  A 1.87 1.86 59.3 0 0 1169.31 564.26
  L 1107.39 602.32
  A 1.48 1.48 0.0 0 0 1107.11 604.62
  L 1112.47 610.12
  Z"
      />
      <path
        fill="#000000"
        d="
  M 476.25 587.72
  A 0.79 0.79 0.0 0 1 475.92 586.61
  Q 492.14 558.92 514.94 535.93
  C 516.77 534.09 517.59 535.26 519.16 536.40
  Q 536.42 548.88 553.68 561.52
  A 0.79 0.78 -52.2 0 1 553.82 562.66
  C 550.73 566.36 538.60 581.43 542.18 586.30
  Q 543.47 588.07 546.11 587.72
  Q 546.59 587.65 546.91 587.29
  Q 557.95 574.72 573.01 582.52
  C 585.87 589.18 581.01 606.26 583.74 618.07
  Q 586.82 631.36 593.60 643.50
  A 0.67 0.67 0.0 0 1 593.05 644.50
  C 592.77 644.51 592.26 644.56 591.97 644.42
  Q 534.19 616.45 476.25 587.72
  Z"
      />
      <path
        fill="#fff"
        d="
  M 277.95 568.96
  A 0.50 0.50 0.0 0 0 278.67 569.34
  C 296.57 560.35 319.87 580.41 329.22 594.29
  C 336.11 604.51 315.35 633.30 309.30 641.18
  Q 308.93 641.66 308.41 641.34
  L 210.53 581.75
  A 0.81 0.80 -59.1 0 1 210.26 580.65
  Q 218.43 567.18 227.36 554.14
  Q 231.85 547.58 235.28 545.37
  C 251.33 535.04 275.84 551.49 277.95 568.96
  Z
  M 256.19 582.56
  Q 257.58 583.37 258.54 583.68
  Q 259.11 583.86 259.51 583.43
  C 261.30 581.53 263.47 576.80 260.77 574.76
  Q 252.68 568.65 243.61 564.23
  A 1.32 1.31 31.4 0 0 241.98 564.62
  L 237.76 570.22
  A 0.80 0.79 -55.2 0 0 237.96 571.37
  Q 246.90 577.21 256.19 582.56
  Z
  M 277.13 595.32
  Q 289.63 603.09 301.41 610.11
  Q 303.11 611.13 304.79 610.00
  C 307.89 607.93 307.07 602.26 305.05 600.05
  Q 304.44 599.38 299.54 595.88
  C 294.86 592.55 277.98 581.04 276.47 593.96
  A 1.41 1.41 0.0 0 0 277.13 595.32
  Z"
      />
      <path
        fill="#000000"
        d="
  M 1112.47 610.12
  L 1107.11 604.62
  A 1.48 1.48 0.0 0 1 1107.39 602.32
  L 1169.31 564.26
  A 1.87 1.86 59.3 0 1 1171.91 564.93
  C 1176.17 572.39 1171.90 574.45 1165.93 578.26
  Q 1140.05 594.79 1113.64 610.27
  A 0.96 0.96 0.0 0 1 1112.47 610.12
  Z"
      />
      <path
        fill="#000000"
        d="
  M 256.19 582.56
  Q 246.90 577.21 237.96 571.37
  A 0.80 0.79 -55.2 0 1 237.76 570.22
  L 241.98 564.62
  A 1.32 1.31 31.4 0 1 243.61 564.23
  Q 252.68 568.65 260.77 574.76
  C 263.47 576.80 261.30 581.53 259.51 583.43
  Q 259.11 583.86 258.54 583.68
  Q 257.58 583.37 256.19 582.56
  Z"
      />
      <path
        fill="#fff"
        stroke="white"
        d="
  M 562.62 570.14
  A 1.12 1.12 0.0 0 1 562.09 568.19
  C 574.51 557.44 594.04 574.16 601.44 583.36
  C 607.33 590.69 609.02 597.89 612.00 607.99
  C 615.31 619.20 620.71 622.64 630.75 627.49
  A 1.39 1.39 0.0 0 1 631.14 629.72
  C 628.11 632.77 616.39 645.93 613.06 646.29
  Q 612.54 646.35 612.09 646.07
  C 594.02 634.74 593.37 617.75 590.97 598.75
  C 589.94 590.66 586.88 581.68 580.54 576.55
  C 574.96 572.04 569.47 571.39 562.62 570.14
  Z"
      />
      <path
        fill="#fff"
        stroke="white"
        d="
  M 721.93 645.04
  C 716.48 640.88 711.18 635.30 706.47 629.54
  C 705.11 627.88 704.66 626.61 705.92 624.65
  Q 715.12 610.34 731.20 606.36
  C 738.93 604.46 749.39 606.30 755.98 605.02
  C 769.85 602.31 777.51 593.09 779.90 579.41
  C 780.29 577.22 781.69 576.04 783.84 577.03
  Q 784.33 577.26 784.46 577.78
  C 784.65 578.54 785.09 579.75 785.10 580.47
  Q 785.61 607.01 763.45 617.92
  C 747.35 625.84 730.11 622.76 723.87 644.39
  Q 723.37 646.14 721.93 645.04
  Z"
      />
      <path
        fill="#000000"
        d="
  M 277.13 595.32
  A 1.41 1.41 0.0 0 1 276.47 593.96
  C 277.98 581.04 294.86 592.55 299.54 595.88
  Q 304.44 599.38 305.05 600.05
  C 307.07 602.26 307.89 607.93 304.79 610.00
  Q 303.11 611.13 301.41 610.11
  Q 289.63 603.09 277.13 595.32
  Z"
      />
      <path
        fill="#000000"
        d="
  M 439.97 748.39
  A 2.29 2.29 0.0 0 1 438.12 746.26
  Q 434.10 667.82 468.99 597.54
  C 469.66 596.19 471.97 596.30 473.28 596.93
  Q 536.11 627.18 598.85 657.60
  Q 600.38 658.34 600.82 659.63
  Q 601.01 660.18 600.55 660.54
  C 587.41 670.81 578.13 660.33 566.74 654.72
  Q 546.69 644.84 524.95 652.95
  C 502.43 661.35 494.21 686.02 511.06 704.74
  A 1.12 1.11 40.6 0 0 512.82 704.61
  C 515.42 700.61 515.18 695.46 516.18 692.25
  C 518.30 685.41 524.11 679.37 531.35 678.04
  C 541.86 676.11 554.26 688.05 561.69 694.08
  C 569.79 700.65 576.34 704.75 585.84 706.32
  A 1.03 1.03 0.0 0 1 585.95 708.32
  Q 514.07 728.51 443.25 748.27
  Q 441.66 748.71 439.97 748.39
  Z"
      />
      <path
        fill="#000000"
        d="
  M 800.42 685.42
  C 789.02 683.07 778.61 673.40 772.02 663.95
  Q 770.96 662.43 772.72 661.84
  L 942.89 605.31
  A 1.36 1.35 66.7 0 1 944.51 605.96
  C 962.32 639.11 969.79 677.59 971.30 714.93
  A 1.77 1.77 0.0 0 1 969.49 716.77
  Q 968.66 716.76 967.27 716.58
  Q 900.37 708.14 833.51 699.44
  Q 831.12 699.13 831.92 696.59
  Q 837.89 677.88 827.88 661.22
  Q 826.51 658.93 824.13 659.67
  A 2.40 2.39 86.6 0 0 822.49 661.53
  C 821.74 665.73 821.54 670.35 819.73 673.96
  C 816.27 680.88 808.80 687.15 800.42 685.42
  Z"
      />
      <circle fill="#fff" cx="668.51" cy="682.18" r="53.95" stroke="white" />
      <path
        fill="#fff"
        stroke="white"
        d="
  M 513.88 678.99
  C 511.53 677.65 512.31 676.44 513.29 674.41
  C 520.46 659.42 536.57 659.52 550.76 659.73
  C 558.57 659.84 567.51 665.96 574.98 669.72
  C 585.72 675.13 594.41 676.41 604.53 669.33
  A 0.81 0.81 0.0 0 1 605.81 670.02
  Q 605.44 682.13 604.76 694.25
  C 604.63 696.74 603.27 697.64 600.85 697.87
  C 574.93 700.33 564.91 681.03 544.45 671.38
  C 532.41 665.70 523.43 670.56 514.50 678.92
  Q 514.21 679.18 513.88 678.99
  Z"
      />
      <path
        fill="#fff"
        stroke="white"
        d="
  M 778.79 702.63
  C 762.71 696.91 752.14 683.22 733.47 694.36
  A 0.48 0.48 0.0 0 1 732.75 693.95
  L 732.75 668.71
  Q 732.75 668.16 733.22 667.87
  Q 734.39 667.13 735.77 666.92
  C 757.98 663.42 769.27 676.37 784.55 688.95
  Q 795.98 698.36 811.17 693.23
  C 812.09 692.92 822.41 685.49 824.70 687.69
  Q 825.02 687.99 824.79 688.38
  C 814.97 704.58 795.82 708.70 778.79 702.63
  Z"
      />
      <path
        fill="#000000"
        d="
  M 730.31 710.65
  A 1.38 1.38 0.0 0 1 730.05 708.54
  C 740.63 697.47 751.11 699.31 763.39 705.32
  C 776.65 711.81 787.38 716.40 802.49 713.48
  C 810.76 711.88 820.81 707.55 831.59 708.86
  Q 901.13 717.29 970.23 726.82
  A 0.92 0.91 3.7 0 1 971.02 727.71
  Q 971.03 729.12 969.74 729.46
  C 964.18 730.95 958.95 732.25 953.00 733.11
  C 925.18 737.14 900.33 745.11 876.28 760.59
  Q 875.85 760.87 875.70 761.36
  Q 875.29 762.70 875.29 763.81
  Q 875.22 781.19 875.26 798.57
  A 1.89 1.89 0.0 0 1 872.96 800.42
  Q 871.89 800.19 870.92 799.58
  Q 800.68 755.42 730.31 710.65
  Z"
      />
      <path
        fill="#000000"
        d="
  M 438.41 758.89
  L 603.47 712.60
  A 1.29 1.28 -7.1 0 1 605.11 713.87
  C 604.70 727.83 591.57 731.63 580.23 734.18
  C 559.65 738.81 535.72 766.15 543.66 787.76
  C 544.93 791.24 547.37 794.51 549.68 797.58
  Q 550.03 798.05 549.68 798.52
  Q 548.74 799.75 547.19 801.18
  Q 493.74 850.29 439.56 899.93
  Q 438.01 901.36 437.59 899.29
  Q 437.38 898.27 437.37 896.06
  Q 437.21 790.16 437.26 763.00
  Q 437.26 761.74 437.72 759.62
  Q 437.84 759.05 438.41 758.89
  Z"
      />
      <path
        fill="#fff"
        stroke="white"
        d="
  M 614.58 718.55
  A 0.81 0.80 -52.7 0 1 615.88 718.37
  L 631.81 735.41
  A 1.38 1.37 -54.1 0 1 632.05 736.94
  C 615.48 771.90 577.78 745.46 561.02 773.26
  C 558.45 777.53 556.71 783.85 554.80 789.06
  A 0.56 0.55 46.5 0 1 553.75 789.03
  C 548.35 771.77 557.28 756.57 571.69 747.52
  C 580.17 742.21 590.22 740.87 599.43 736.91
  C 608.17 733.14 610.56 726.13 614.58 718.55
  Z"
      />
      <path
        fill="#fff"
        stroke="white"
        d="
  M 705.43 737.01
  A 0.65 0.65 0.0 0 1 705.17 735.96
  Q 712.66 727.79 720.55 719.56
  Q 722.74 717.27 725.33 718.86
  Q 742.49 729.43 744.08 749.73
  C 744.68 757.43 744.69 766.64 746.92 773.28
  Q 753.12 791.79 774.63 794.19
  A 1.09 1.09 0.0 0 1 775.56 795.54
  C 775.39 796.21 774.91 796.90 774.24 797.22
  C 753.15 807.58 732.73 780.40 727.68 763.57
  C 723.16 748.51 721.12 742.52 705.43 737.01
  Z"
      />
      <path
        fill="#000000"
        d="
  M 783.66 782.85
  C 770.29 790.66 758.59 780.18 755.57 767.17
  Q 752.18 752.51 753.22 737.58
  A 0.89 0.89 0.0 0 1 754.57 736.89
  L 866.21 806.54
  Q 867.46 807.31 866.69 808.57
  Q 866.21 809.35 864.53 809.85
  Q 836.87 818.08 809.19 826.49
  A 1.22 1.22 0.0 0 0 808.33 827.52
  Q 806.17 846.80 808.15 866.06
  Q 808.66 871.13 807.11 875.27
  Q 806.92 875.80 806.39 875.99
  Q 804.90 876.52 802.50 877.00
  Q 776.23 882.19 749.92 887.16
  C 747.20 887.67 745.37 888.24 744.32 884.98
  Q 722.47 817.28 700.78 749.53
  C 700.21 747.76 700.51 746.15 702.74 746.28
  C 712.33 746.84 715.78 754.25 718.02 762.46
  Q 724.44 786.06 744.10 800.66
  C 758.71 811.50 776.55 813.35 787.94 796.42
  Q 793.06 788.79 794.58 784.82
  C 795.52 782.34 795.92 775.36 791.93 775.88
  C 789.88 776.15 785.99 781.49 783.66 782.85
  Z"
      />
      <path
        fill="#e3e6f5"
        d="
  M 922.50 752.96
  L 921.16 749.56
  Q 943.83 743.52 967.05 740.21
  C 973.51 739.29 975.62 747.01 969.75 747.66
  Q 946.12 750.25 922.50 752.96
  Z"
      />
      <path
        fill="#000000"
        d="
  M 572.20 809.72
  C 575.13 802.89 570.82 800.99 566.98 796.52
  A 0.85 0.84 46.3 0 1 567.00 795.39
  Q 578.43 783.31 590.20 771.69
  C 596.46 765.50 608.63 767.38 616.76 763.81
  Q 631.72 757.24 640.19 742.85
  A 0.69 0.68 -54.2 0 1 641.23 742.68
  C 652.65 752.57 653.43 763.74 645.44 776.12
  Q 544.21 932.95 441.87 1089.06
  Q 440.67 1090.89 439.22 1091.48
  A 1.43 1.43 0.0 0 1 437.26 1090.15
  Q 437.24 1003.83 437.21 917.75
  C 437.21 915.10 438.04 913.50 440.07 911.63
  Q 497.41 858.94 554.76 806.26
  Q 556.38 804.77 557.65 804.04
  Q 558.16 803.75 558.69 804.02
  L 570.79 810.23
  A 1.02 1.02 0.0 0 0 572.20 809.72
  Z"
      />
      <path
        fill="#fff"
        stroke="white"
        d="
  M 664.27 838.43
  C 658.61 837.62 653.69 833.30 651.24 828.57
  Q 642.68 812.07 647.53 794.99
  C 649.44 788.26 654.26 780.26 657.60 773.09
  C 662.15 763.35 660.08 755.90 656.30 746.52
  A 0.56 0.55 78.9 0 1 656.81 745.75
  L 681.50 745.75
  Q 682.11 745.75 682.27 746.33
  C 686.59 761.28 682.95 772.43 673.83 784.08
  C 659.62 802.20 645.44 815.50 664.73 837.59
  A 0.51 0.51 0.0 0 1 664.27 838.43
  Z"
      />
      <path
        fill="#000000"
        d="
  M 921.16 749.56
  L 922.50 752.96
  Q 916.70 754.94 910.59 754.75
  A 0.59 0.59 0.0 0 1 910.16 753.78
  Q 914.50 748.63 921.16 749.56
  Z"
      />
      <path
        fill="#bce0f6"
        d="
  M 885.33 804.29
  C 884.82 803.10 884.94 801.15 884.88 799.98
  Q 884.16 784.09 883.97 769.03
  Q 883.95 767.45 885.53 767.26
  L 968.85 757.14
  A 1.74 1.74 0.0 0 1 970.80 758.86
  L 971.08 794.96
  A 1.17 1.16 87.3 0 1 970.03 796.12
  L 886.25 804.83
  A 0.92 0.90 -14.2 0 1 885.33 804.29
  Z"
      />
      <path
        fill="#000000"
        d="
  M 687.26 834.57
  C 679.72 835.90 672.43 832.60 668.63 825.89
  C 659.38 809.58 672.36 799.85 681.73 788.99
  Q 691.49 777.69 692.81 762.79
  A 0.90 0.89 1.4 0 1 693.67 761.98
  C 694.91 761.94 695.72 762.48 696.11 763.71
  Q 715.60 824.59 735.00 885.50
  Q 735.55 887.23 735.69 888.36
  Q 735.89 889.96 734.30 890.26
  Q 720.21 892.92 706.82 895.34
  Q 701.12 896.36 701.06 901.50
  Q 700.65 934.38 700.75 967.33
  A 1.56 1.56 0.0 0 1 699.79 968.77
  Q 696.05 970.34 692.03 971.60
  Q 651.63 984.27 611.23 996.94
  C 608.75 997.72 608.15 1002.07 608.18 1003.75
  Q 608.68 1040.35 609.31 1056.00
  Q 609.44 1059.00 609.28 1060.69
  Q 609.23 1061.26 608.68 1061.39
  L 581.08 1067.98
  A 1.08 1.07 -7.7 0 1 579.75 1066.97
  C 579.74 1066.68 579.69 1066.02 579.80 1065.69
  Q 614.68 954.81 649.67 843.92
  A 0.88 0.88 0.0 0 1 650.86 843.38
  C 663.27 848.83 674.89 849.97 686.67 842.75
  C 689.87 840.79 691.83 837.81 688.18 834.81
  Q 687.78 834.48 687.26 834.57
  Z"
      />
      <path
        fill="#fff"
        d="
  M 569.16 777.53
  C 570.52 773.84 574.17 770.68 577.61 769.08
  A 0.41 0.41 0.0 0 1 578.10 769.71
  C 577.01 771.10 570.92 779.83 569.40 778.48
  Q 568.96 778.09 569.16 777.53
  Z"
      />
      <path
        fill="#e3e6f5"
        d="
  M 880.53 821.18
  C 877.76 821.37 864.53 823.75 860.73 822.15
  A 0.57 0.57 0.0 0 1 860.71 821.10
  C 870.86 816.53 879.35 814.68 891.40 813.50
  Q 927.70 809.97 964.01 806.62
  C 966.28 806.41 971.46 805.08 972.23 808.15
  C 973.64 813.73 970.08 815.50 965.15 815.79
  Q 922.82 818.24 880.53 821.18
  Z"
      />
      <path
        fill="#000000"
        d="
  M 445.63 1100.61
  Q 444.94 1099.50 445.95 1097.96
  Q 539.79 954.66 633.65 811.37
  C 634.14 810.64 634.91 809.97 635.52 809.36
  A 0.40 0.40 0.0 0 1 636.20 809.60
  Q 637.54 821.49 641.33 832.43
  C 642.30 835.24 642.96 836.09 641.99 839.15
  Q 606.13 952.78 570.26 1066.41
  C 568.73 1071.24 568.65 1071.33 563.70 1072.55
  Q 505.62 1086.94 447.45 1101.34
  A 1.68 1.67 -22.9 0 1 445.63 1100.61
  Z"
      />
      <rect
        fill="#bce0f6"
        x="-77.58"
        y="-20.82"
        transform="translate(894.26,850.03) rotate(-3.3)"
        width="155.16"
        height="41.64"
        rx="3.57"
      />
      <path
        fill="#e3e6f5"
        d="
  M 969.64 895.64
  C 906.31 894.10 843.53 895.47 780.42 895.65
  C 772.24 895.68 764.00 896.60 755.80 897.26
  A 0.22 0.22 0.0 0 1 755.72 896.83
  C 775.84 890.07 796.75 885.03 817.97 883.85
  Q 894.12 879.60 970.22 876.26
  A 0.50 0.49 87.8 0 1 970.74 876.75
  L 971.09 894.20
  Q 971.12 895.67 969.64 895.64
  Z"
      />
      <path
        fill="#bce0f6"
        d="
  M 710.91 966.91
  Q 709.50 966.69 709.50 965.26
  L 709.52 907.57
  A 2.15 2.14 0.1 0 1 711.68 905.43
  L 969.91 906.28
  A 1.59 1.59 0.0 0 1 971.50 907.87
  Q 971.51 943.60 971.50 979.26
  C 971.50 981.06 969.61 981.10 968.04 981.02
  Q 842.27 974.31 716.50 967.50
  Q 713.63 967.34 710.91 966.91
  Z"
      />
      <path
        fill="#e3e6f5"
        d="
  M 648.27 998.12
  Q 643.39 1000.89 639.42 997.22
  A 0.56 0.55 -23.5 0 1 639.80 996.26
  L 648.28 996.25
  Q 648.75 996.25 649.14 995.99
  Q 650.77 994.94 651.75 994.50
  C 673.14 985.05 696.47 978.06 719.94 976.94
  Q 726.98 976.61 739.92 977.49
  C 786.42 980.67 832.90 983.27 879.43 985.86
  C 896.37 986.81 913.71 987.33 930.24 988.41
  C 943.42 989.28 956.50 990.54 969.74 990.50
  Q 971.50 990.49 971.50 992.26
  L 971.50 1026.47
  A 1.55 1.55 0.0 0 1 969.95 1028.02
  Q 968.49 1028.01 966.51 1027.85
  Q 869.44 1019.64 772.40 1010.97
  C 726.05 1006.83 682.68 1003.55 651.50 1000.21
  Q 650.50 1000.10 649.22 998.33
  Q 648.84 997.80 648.27 998.12
  Z"
      />
      <path
        fill="#bce0f6"
        d="
  M 619.26 1060.43
  A 1.06 1.05 -82.9 0 1 618.49 1059.44
  Q 617.97 1035.83 617.23 1012.07
  Q 617.19 1010.61 617.66 1009.36
  Q 617.85 1008.87 618.38 1008.81
  Q 631.10 1007.54 636.50 1008.00
  Q 803.24 1022.17 969.97 1037.36
  A 0.84 0.84 0.0 0 1 970.73 1038.20
  L 970.78 1102.60
  Q 970.78 1103.15 970.24 1103.17
  C 960.85 1103.60 951.16 1102.18 939.22 1100.72
  Q 780.68 1081.30 622.24 1061.09
  Q 621.09 1060.94 619.26 1060.43
  Z"
      />
      <path
        fill="#000000"
        d="
  M 861.75 1102.46
  L 858.96 1104.50
  Q 803.97 1107.22 752.44 1107.10
  C 722.15 1107.03 686.96 1106.29 651.44 1106.29
  Q 563.84 1106.28 476.25 1105.65
  Q 475.69 1105.64 475.58 1105.09
  L 475.50 1104.69
  A 0.65 0.64 -12.7 0 1 475.98 1103.94
  Q 541.61 1087.27 606.96 1070.86
  C 608.90 1070.37 611.18 1070.10 613.14 1070.32
  Q 729.93 1083.37 846.50 1098.25
  C 847.79 1098.42 862.14 1100.72 861.75 1102.46
  Z"
      />
      <path
        fill="#e3e6f5"
        d="
  M 858.96 1104.50
  L 861.75 1102.46
  C 865.55 1102.06 895.28 1102.90 896.80 1104.47
  A 0.71 0.71 0.0 0 1 896.36 1105.67
  Q 877.49 1107.43 858.96 1104.50
  Z"
      />
      <path
        fill="#fff"
        d="
  M 436.75 1180.26
  C 433.08 1180.29 429.19 1178.15 430.30 1174.07
  C 430.98 1171.59 438.11 1172.04 440.49 1172.02
  Q 694.24 1169.96 948.00 1167.99
  Q 953.12 1167.95 958.23 1167.65
  Q 958.76 1167.62 958.83 1167.10
  C 959.18 1164.48 958.87 1151.31 964.91 1155.59
  Q 973.00 1161.32 981.11 1167.02
  C 984.51 1169.41 986.89 1172.33 982.60 1175.62
  Q 973.92 1182.28 965.07 1188.72
  C 959.40 1192.85 959.16 1179.86 958.47 1177.10
  Q 958.33 1176.56 957.77 1176.56
  C 784.10 1178.07 610.42 1179.06 436.75 1180.26
  Z"
      />
    </svg>
